<svg width="101" height="100" viewBox="0 0 101 100" fill="none" xmlns="http://www.w3.org/2000/svg">
<rect x="14" y="16" width="73" height="68" fill="white"/>
<path d="M16.3717 0.771169C8.1207 2.50822 2.51872 8.24047 0.781671 16.6652C-0.260557 21.6157 -0.260557 78.3303 0.781671 83.3243C2.51872 91.7925 8.20755 97.4813 16.6757 99.2183C21.6697 100.261 78.3843 100.261 83.3783 99.2183C91.8898 97.4813 97.5352 91.8359 99.2723 83.2809C100.314 78.3303 100.314 21.6157 99.2723 16.6217C97.5352 8.15362 91.8464 2.46479 83.3783 0.727742C78.558 -0.27106 21.0617 -0.227634 16.3717 0.771169ZM48.2031 20.0958C48.1162 20.3564 45.7712 21.442 43.0354 22.4408C32.6999 26.2189 33.0039 26.0452 34.0896 27.5651C34.6975 28.3902 34.8278 28.3468 38.1282 27.2611C42.3405 25.8715 53.1971 23.0488 54.413 23.0488C56.0198 23.0488 57.4094 24.3516 57.4094 25.8281C57.4094 26.5663 57.2357 27.4348 57.0186 27.7823C56.2803 28.9113 47.8557 37.2492 47.8557 36.8149C47.8557 35.903 50.7652 32.2117 53.3708 29.8233C55.7158 27.6954 56.0632 27.1743 55.5855 26.6532C54.6301 25.4807 49.2887 26.1755 42.4274 28.4336C33.6119 31.2998 27.6191 33.8619 28.3573 34.4699C28.4442 34.6002 31.0497 36.1635 34.133 37.9874L39.735 41.3747L41.6023 40.6364C43.7736 39.8113 43.817 39.5942 42.8616 35.2081C42.1234 31.9077 42.0365 29.3022 42.6011 28.9113C43.0354 28.6508 45.2501 32.038 45.2501 32.95C45.2501 33.2105 44.9461 33.3408 44.5553 33.1671C44.0342 32.9934 43.9473 33.1671 44.1644 34.1659C44.9027 37.336 45.4238 38.3348 47.2477 39.8547C48.6373 40.9404 49.1584 41.6786 49.0716 42.33C48.9413 43.1986 48.7242 43.242 45.4672 43.1117C43.1656 42.9814 42.1234 43.0683 42.4274 43.3723C42.8616 43.8065 51.46 49.9296 52.5891 50.581C53.0668 50.885 53.1537 49.6691 52.8931 42.7643C52.6325 36.0767 52.676 34.4265 53.1971 33.7316C53.7616 32.9934 53.8485 33.0803 54.6736 35.0344C56.3238 38.8559 56.4106 40.5496 54.8907 39.0296C54.4564 38.5954 54.413 38.7691 54.5433 39.7679C54.6736 40.5061 54.8907 43.4157 54.9776 46.3252C55.1078 49.1914 55.325 51.8838 55.4552 52.2746C56.1935 54.1419 61.1006 54.3157 61.5349 52.4483C61.6652 51.9272 61.2743 45.6304 60.6664 38.4651C59.4505 24.0476 59.3636 21.9197 60.015 21.5289C60.2755 21.3552 61.0572 22.4843 61.752 24.0042C63.3154 27.3046 63.4457 28.3034 62.1429 27.1309L61.2309 26.3058L61.4915 28.2599C62.7508 37.64 63.4022 51.3627 62.664 53.5774C61.9692 55.6619 60.1453 56.6607 57.4528 56.4001L55.4552 56.183L55.5855 61.9152C55.7592 67.4738 55.1513 71.8164 54.3696 70.9913C54.1959 70.7742 53.9353 67.0395 53.8485 62.6969C53.7182 56.1396 53.5445 54.6631 52.9799 54.2288C51.1126 52.7089 43.6433 47.0635 43.1222 46.7161C42.7314 46.4989 42.8182 46.9332 43.4262 47.8886C44.0776 48.9308 44.3816 50.1033 44.3816 51.6232C44.3816 54.6631 43.0788 56.1396 39.2573 57.3989C32.2657 59.7005 30.4852 61.3507 30.4852 65.7367C30.4852 70.7742 32.3959 72.3375 38.3019 72.0335C41.5589 71.9033 42.5142 71.6427 45.2935 70.2531C48.0728 68.8634 50.8955 66.8658 50.8955 66.2579C50.8955 66.1276 50.331 64.3471 49.5927 62.2626C47.5517 56.4435 47.9425 54.1854 50.4178 57.3121C51.8943 59.1794 52.1549 60.0913 51.0258 59.6571C50.4612 59.4399 50.3744 59.5268 50.6784 60.2216C51.5469 62.2626 52.1549 65.3459 51.8943 66.475C51.764 67.1698 50.8086 68.7332 49.7664 69.9491C47.4214 72.6849 46.77 75.5945 48.2031 77.0275C49.0716 77.8961 49.115 77.8961 50.331 77.1144C50.9823 76.6801 53.0234 74.8128 54.8039 72.9889C57.3226 70.4268 58.8425 69.2543 61.5349 67.9515C63.4457 67.0395 65.0524 66.2579 65.0959 66.2579C65.1393 66.2579 65.313 65.2591 65.4433 64.0865C65.617 62.8706 65.8341 61.5244 65.9644 61.0467C66.3118 59.8308 67.8317 58.224 68.7437 58.224C69.5253 58.224 70.8715 60.6125 70.8715 62.0021C70.8281 63.1312 69.395 66.1276 68.5265 66.8658C68.0054 67.3001 67.9186 67.6041 68.3094 68.0383C69.2648 69.2108 72.7823 68.3857 73.26 66.9092C73.5205 66.1276 72.9994 55.8356 71.7401 36.9018C71.1755 28.5639 71.8269 26.9572 73.8245 31.9077C74.8668 34.5567 74.8233 35.295 73.6942 34.3396C73.0863 33.8185 73.0428 33.9488 73.26 35.4687C73.8245 39.4639 74.4325 49.0611 74.6062 57.3555C74.8233 66.0407 74.7799 66.3013 73.7811 68.212C72.6954 70.3833 70.2201 71.9467 68.7002 71.469C68.2225 71.3387 67.5277 70.6439 67.0935 69.9057C66.7026 69.2108 66.0947 68.6463 65.8341 68.6463C65.5735 68.6463 63.7931 69.428 61.8823 70.3833C59.3202 71.6427 57.67 72.9021 55.2815 75.3774C50.8086 79.9805 49.723 80.4148 47.8122 78.3738C46.9871 77.4618 46.77 76.8104 46.77 74.8997C46.77 72.9889 46.6397 72.5546 46.1186 72.7284C45.7712 72.8152 44.2947 73.3363 42.8616 73.8574C37.1294 75.9853 32.5696 75.4208 30.1812 72.2507C28.9653 70.6873 28.6179 67.8212 29.2693 64.8682L29.5732 63.4352L27.9665 64.4774C25.4477 66.1276 23.8844 66.1276 22.8422 64.5208C21.9302 63.0877 21.9302 58.6148 22.8856 56.3567C23.4936 54.8802 23.4936 54.6631 22.6685 53.3603C22.1908 52.5786 21.7999 51.2324 21.7999 50.4073C21.8434 48.6268 23.3633 44.675 24.8398 42.5906C26.2294 40.593 26.4465 41.6786 25.1438 43.9802C22.4079 48.7137 22.2342 52.1443 24.7529 52.1443C26.186 52.1443 31.2234 48.2794 31.0063 47.324C30.9194 46.9766 31.0063 46.8464 31.18 47.0201C31.5274 47.3675 35.6963 44.0237 35.6963 43.4157C35.6963 43.1986 34.3935 42.0695 32.7868 40.9404C27.7493 37.336 26.5768 36.1635 26.5768 34.5133C26.5768 33.2974 26.8808 32.8197 28.227 31.8209C29.1824 31.1695 30.7457 30.2575 31.7445 29.8233C33.4382 29.0416 33.4816 28.9548 32.8302 28.2165C31.6577 26.9137 32.3959 25.3938 34.7409 24.1779C36.9123 23.0922 46.8134 19.5747 47.7688 19.5747C48.1162 19.5747 48.2899 19.7918 48.2031 20.0958ZM56.4975 20.1827C56.9317 20.6604 56.8015 20.9209 56.0198 21.4855C54.8038 22.354 53.6313 22.4408 54.3262 21.6157C54.6736 21.1381 54.4999 21.0512 53.3708 21.1815L51.9811 21.3552L53.0234 20.4867C54.1959 19.4444 55.7592 19.3141 56.4975 20.1827ZM67.354 26.1755C68.7871 29.5193 68.9174 30.1707 68.0488 29.8233C67.354 29.5627 67.3106 29.9101 67.6146 34.4265C67.7883 37.1189 68.0054 39.4639 68.1357 39.681C68.2225 39.8547 68.6568 39.8113 69.0911 39.5508C70.1767 38.9862 70.4373 39.377 70.4373 41.3312C70.4373 42.634 70.1767 43.1551 69.3951 43.6762C68.4397 44.2842 68.3528 44.7185 68.3094 47.324C68.3094 48.9742 68.0488 50.8416 67.7883 51.5364C67.1803 53.0129 67.0935 52.8392 66.746 49.0177L66.4421 46.0647L65.1393 46.7595C63.8365 47.4543 62.7074 47.1938 63.9668 46.4989C64.3576 46.2818 65.0959 45.7607 65.5735 45.3264C66.5289 44.5448 66.5289 44.4145 66.0947 37.8137C65.5301 28.9113 65.5301 24.3516 66.0947 24.3516C66.3552 24.3516 66.9198 25.1767 67.354 26.1755ZM27.8796 27.348C27.8796 27.5651 27.7059 28.2599 27.4454 28.8679C27.1848 29.6062 27.1848 29.997 27.4454 29.997C27.7059 29.997 27.8796 30.301 27.8796 30.6484C27.8796 30.9958 27.5756 31.2998 27.2282 31.2998C26.5334 31.2998 26.3597 29.7364 26.8374 27.9125C27.0979 27.0006 27.8796 26.5663 27.8796 27.348ZM48.9413 29.2587C48.1162 31.2129 48.1162 31.2129 48.9847 31.3866C49.5493 31.5169 49.5493 31.6472 49.0282 32.342C47.5083 34.4265 46.8569 31.1695 48.3333 28.7376C49.4624 26.9137 49.8098 27.2177 48.9413 29.2587ZM57.8437 32.4723C57.8003 33.1671 57.9305 34.2528 58.1042 34.9042C58.3648 35.9898 58.2779 36.1201 57.5831 35.9898C56.5843 35.8161 56.3238 34.1659 56.9317 32.4723C57.4963 30.9524 57.8871 30.9958 57.8437 32.4723ZM64.401 34.1225C65.009 33.7316 64.8787 35.0344 64.2273 35.599C63.7931 35.9464 63.4891 35.903 63.1417 35.5555C62.4903 34.9042 62.4903 33.8619 63.1417 32.2986L63.6628 31.0826L63.8365 32.7328C63.9233 33.6014 64.1405 34.2528 64.401 34.1225ZM39.9521 33.3842C40.0389 34.0791 39.9087 34.2528 39.4744 34.0791C38.9967 33.9053 38.7362 34.383 38.519 36.0332C38.3453 37.2492 38.0848 38.3348 37.9111 38.4217C37.7374 38.552 37.2597 38.0743 36.8688 37.3794C36.4346 36.6846 35.7398 35.9898 35.2621 35.8595C34.3067 35.5555 34.0461 33.9053 35.0015 33.9053C35.3055 33.9053 36.0872 34.2962 36.7386 34.8173C37.6505 35.5121 37.8676 35.5555 37.8676 35.0344C37.8676 32.7328 39.6481 31.2998 39.9521 33.3842ZM78.6883 38.1177C79.6436 40.7233 79.5568 41.3312 78.4277 40.3759C77.7329 39.8113 77.6894 39.8547 77.95 40.8535C78.1237 41.4615 78.3843 46.4555 78.5145 51.9272C78.7317 59.3531 78.6882 62.3495 78.2974 63.5654C77.9934 64.434 77.5592 65.0854 77.342 64.9551C77.1249 64.7814 76.9512 62.0889 76.9512 58.9623C76.9512 55.7921 76.7341 49.3651 76.4735 44.675C76.213 39.985 76.0827 35.8161 76.2564 35.3818C76.6907 34.2528 77.646 35.3384 78.6883 38.1177ZM26.2294 37.6834C26.3597 38.3782 26.6203 39.2468 26.794 39.6376C26.9677 40.1587 26.9242 40.4193 26.5768 40.4193C26.3163 40.4193 24.9701 41.2878 23.6238 42.33C22.2342 43.3723 20.6709 44.4579 20.1498 44.7619C18.9772 45.3264 18.1521 44.8922 19.2812 44.2842C19.6721 44.0671 20.9748 43.1117 22.1908 42.1563C24.1015 40.6364 24.3621 40.2456 24.145 39.2902C23.9713 38.552 24.1015 37.944 24.6226 37.3794C25.6649 36.2069 26.0123 36.2938 26.2294 37.6834ZM22.5816 38.5085C23.233 39.1599 23.1896 39.2902 22.4513 39.8113C21.496 40.5061 20.9314 39.9416 21.2354 38.6388C21.496 37.64 21.6697 37.64 22.5816 38.5085ZM30.0509 42.8511C29.3995 44.5882 29.4864 46.0647 30.2681 45.8041C31.1366 45.4567 31.0931 46.2818 30.1812 47.1503C29.4864 47.8452 29.443 47.8452 28.8784 47.1069C28.1402 46.1081 28.1836 45.2396 28.9653 43.2854C29.7035 41.5049 30.7023 41.0707 30.0509 42.8511ZM50.8955 44.0671C50.2875 45.7173 50.331 46.4121 51.1561 46.5858C51.7206 46.7161 51.7206 46.8029 51.1995 47.5846C50.6349 48.3228 50.4612 48.3228 49.8533 47.8452C49.0282 47.1503 49.2453 45.2396 50.331 43.546C51.1561 42.2432 51.5035 42.5472 50.8955 44.0671ZM58.9293 45.5001C58.7556 45.9344 58.5385 46.9332 58.4082 47.6715C58.2345 48.8005 58.3214 49.1045 58.8859 49.1045C59.711 49.1045 59.7979 49.5822 59.0596 50.3204C58.2779 51.1021 57.8871 50.9718 57.4094 49.7559C56.9752 48.6268 58.1042 44.7619 58.8425 44.7619C59.0596 44.7619 59.103 45.1093 58.9293 45.5001ZM81.0333 47.5846C80.2516 49.4953 80.2516 50.4073 81.0767 50.4073C81.9018 50.4073 81.9018 50.885 81.0767 51.9706C80.5122 52.6655 80.3819 52.7089 79.991 52.1443C79.1659 50.9718 80.3384 45.2396 81.2504 45.8475C81.511 45.9778 81.4241 46.6726 81.0333 47.5846ZM48.3768 52.926C48.7242 54.2722 48.6373 54.4459 46.3357 56.5738C42.9485 59.6571 40.864 61.2638 40.2995 61.2638C40.0389 61.2204 41.4286 59.7439 43.3828 57.8766C46.4226 55.0539 46.9003 54.4025 46.5094 53.7511C45.9015 52.7523 46.4226 51.189 47.3345 51.3627C47.7254 51.4495 48.2031 52.1443 48.3768 52.926ZM21.3657 53.7511C21.3657 54.1854 20.8446 55.3145 20.2366 56.2698C19.4549 57.5292 19.2378 57.7029 19.4115 56.9212C19.5852 56.3133 19.7589 55.3145 19.8458 54.6196C19.976 52.9694 19.976 53.0129 20.7143 53.0129C21.0617 53.0129 21.3657 53.3603 21.3657 53.7511ZM67.3974 53.6643C67.8317 54.1854 68.0488 54.1854 69.0042 53.5774C70.003 52.926 70.1333 52.926 71.0018 53.7945C71.8703 54.7065 71.8703 54.7499 71.1321 55.575C70.3939 56.4001 70.2636 56.4001 69.3082 55.7487C68.3094 55.1408 68.1791 55.1408 67.3974 55.8356C66.5723 56.5738 66.4855 56.5738 65.6604 55.8356C64.8787 55.1408 64.8787 55.0105 65.5301 54.0551C66.3118 52.8392 66.6592 52.7523 67.3974 53.6643ZM64.7919 56.9212C65.3564 57.3121 65.313 57.4858 64.401 58.224C63.1417 59.3097 61.7955 59.4399 62.6206 58.4411C63.0548 57.8766 63.0114 57.7898 62.2297 57.7898C61.1441 57.7898 61.0138 57.0515 62.0994 56.791C63.4022 56.4435 64.0971 56.487 64.7919 56.9212ZM61.7955 60.6125C61.7955 60.8296 61.3612 61.1336 60.8401 61.2638C58.9728 61.6981 59.407 62.5666 61.4915 62.5666C64.1839 62.5666 64.1405 63.522 61.4481 64.2603C60.2755 64.5642 58.9728 64.9551 58.4951 65.0854C57.7134 65.3025 57.7134 65.2591 58.2345 64.6077C58.7122 63.9997 58.7122 63.7391 58.2779 63.218C57.8437 62.6969 58.0174 62.3495 59.103 61.2638C60.3624 59.9611 61.7955 59.6571 61.7955 60.6125ZM38.7362 60.9164C38.7362 61.2204 38.0413 61.9587 37.2162 62.5232C36.3043 63.1312 35.566 64.0865 35.3489 64.9116C34.8712 66.6921 35.1752 68.212 35.9569 67.9081C36.782 67.6041 36.7386 68.82 35.87 69.5583C34.6975 70.5136 33.829 68.9069 34.1764 66.3447C34.437 64.3471 34.3935 64.2603 33.5684 64.6945C32.1354 65.4762 31.484 65.2591 32.4394 64.3471C33.1776 63.6089 38.215 60.3953 38.6059 60.3953C38.6927 60.3953 38.7362 60.6559 38.7362 60.9164ZM46.5529 60.9599C46.5529 61.0033 46.3792 61.6981 46.162 62.4798C45.6409 64.3037 45.9449 65.3893 46.8134 64.6945C47.2911 64.3037 47.4214 64.3471 47.4214 64.7814C47.378 66.6921 45.1632 67.0395 44.9027 65.1722C44.6855 63.8694 45.5541 60.8296 46.1186 60.8296C46.3792 60.8296 46.5529 60.873 46.5529 60.9599ZM42.1234 63.8694C42.9051 64.6077 42.9919 64.9551 42.6445 65.6065C42.08 66.6487 41.3852 66.6921 40.2561 65.867C39.5178 65.3459 39.4744 65.0854 39.9521 64.13C40.5601 62.7838 40.9075 62.7403 42.1234 63.8694ZM28.0967 66.9092C28.227 67.1264 27.923 68.1686 27.4019 69.1674C26.8808 70.2096 26.3597 70.8176 26.2728 70.5136C26.186 70.2096 26.2728 69.6451 26.5334 69.1674C26.8374 68.6029 26.8374 68.212 26.49 67.8646C26.2728 67.6475 26.186 67.2132 26.3163 66.9527C26.7071 66.3447 27.7493 66.3447 28.0967 66.9092ZM66.4855 73.51C66.9632 74.7694 66.6158 75.3339 65.8341 74.6825C65.0524 74.0312 64.6182 74.4654 63.9234 76.5933L63.4022 78.2001L61.5349 76.159C59.407 73.8574 59.3202 73.6403 60.1887 73.2929C60.5795 73.1192 61.3612 73.6403 62.0994 74.5088L63.4022 75.9419L64.0536 74.2483C64.7919 72.3375 65.921 72.0335 66.4855 73.51ZM57.8437 76.2893C57.8437 77.2447 56.5843 79.5028 56.0632 79.5028C55.7592 79.5028 55.8895 79.0252 56.3238 78.3738C56.9317 77.4618 56.9317 77.1578 56.4975 76.8973C56.0632 76.5933 56.0632 76.4196 56.4975 75.855C57.1489 75.0734 57.8437 75.3339 57.8437 76.2893Z" fill="url(#paint0_linear_175_10845)"/>
<path d="M32.8736 49.3217C30.0075 51.8404 26.9242 54.2288 26.0557 54.6196C24.1015 55.4882 23.1027 57.6161 23.1027 60.873C23.1027 64.5208 24.8398 64.3905 29.3995 60.3953C32.5262 57.6595 35.0884 56.1396 38.0848 55.1842C42.4274 53.8814 43.513 53.3169 43.513 52.4918C43.513 51.4495 41.0378 47.628 39.3007 45.9778L38.0413 44.7619L32.8736 49.3217ZM39.3007 50.1467C40.1692 50.7981 40.2127 51.4061 39.5613 52.622C39.127 53.4471 39.0401 53.4471 38.0413 52.7957C36.9991 52.1443 36.8688 52.1443 35.8266 52.7957C34.8278 53.4471 34.6975 53.4471 33.9159 52.7523C32.2657 51.2758 33.4382 49.5388 35.4358 50.4507C36.3911 50.9284 36.6951 50.885 37.3465 50.277C38.1716 49.4085 38.3019 49.4085 39.3007 50.1467ZM28.7481 55.0105C28.0967 56.6172 28.1836 57.4858 28.9653 57.1818C29.7904 56.8778 29.8338 57.9635 28.9653 58.6583C27.5756 59.7874 26.8808 57.3121 27.9665 54.9671C28.6179 53.534 29.2693 53.534 28.7481 55.0105Z" fill="url(#paint1_linear_175_10845)"/>
<path d="M67.0935 61.5678C66.3986 61.8284 66.3552 63.0009 67.0066 64.6077L67.4843 65.8236L68.4831 64.6077C70.0464 62.8706 69.0476 60.7427 67.0935 61.5678Z" fill="url(#paint2_linear_175_10845)"/>
<path d="M68.3094 42.4169C68.3094 42.8946 68.4397 43.0248 68.57 42.6774C68.7002 42.3735 68.6568 41.9826 68.5265 41.8523C68.3962 41.6786 68.266 41.9392 68.3094 42.4169Z" fill="url(#paint3_linear_175_10845)"/>
<defs>
<linearGradient id="paint0_linear_175_10845" x1="50" y1="17.9577" x2="50" y2="256" gradientUnits="userSpaceOnUse">
<stop stop-color="#419846"/>
<stop offset="1" stop-color="#72FF7A"/>
</linearGradient>
<linearGradient id="paint1_linear_175_10845" x1="50" y1="17.9577" x2="50" y2="256" gradientUnits="userSpaceOnUse">
<stop stop-color="#419846"/>
<stop offset="1" stop-color="#72FF7A"/>
</linearGradient>
<linearGradient id="paint2_linear_175_10845" x1="50" y1="17.9577" x2="50" y2="256" gradientUnits="userSpaceOnUse">
<stop stop-color="#419846"/>
<stop offset="1" stop-color="#72FF7A"/>
</linearGradient>
<linearGradient id="paint3_linear_175_10845" x1="50" y1="17.9577" x2="50" y2="256" gradientUnits="userSpaceOnUse">
<stop stop-color="#419846"/>
<stop offset="1" stop-color="#72FF7A"/>
</linearGradient>
</defs>
</svg>
