<svg width="444" height="207" viewBox="0 0 444 207" fill="none" xmlns="http://www.w3.org/2000/svg">
<path d="M436.14 164.521C436.738 164.521 437.562 163.023 438.61 160.026C441.904 152.235 443.551 143.169 443.551 132.831C443.551 129.384 442.503 114.251 440.407 87.43C438.46 60.4593 437.487 46.7492 437.487 46.2997C437.487 45.5505 437.562 45.1759 437.712 45.1759L438.161 45.4007C440.856 48.3974 442.652 49.8958 443.551 49.8958C443.85 49.8958 444 49.5961 444 48.9967C444 47.9479 442.203 42.6287 438.61 33.0391C435.166 24.0489 433.22 19.5537 432.771 19.5537C432.621 19.5537 432.322 19.8534 431.873 20.4528C429.477 26.2964 428.279 29.9674 428.279 31.4658C429.627 34.3127 430.3 37.8339 430.3 42.0293C430.3 45.7752 431.349 63.0814 433.445 93.9479C435.69 124.814 436.813 142.345 436.813 146.541C436.813 151.336 436.589 155.456 436.14 158.902L435.915 162.948C435.915 163.997 435.99 164.521 436.14 164.521ZM378.646 133.28C377.898 132.231 376.85 130.208 375.502 127.212C374.155 124.215 373.481 122.117 373.481 120.919C373.481 119.42 374.155 117.847 375.502 116.199C376.85 114.401 378.197 113.502 379.545 113.502C381.341 113.502 383.438 115.075 385.833 118.221C388.229 121.368 389.426 123.691 389.426 125.189C389.426 126.088 388.004 127.511 385.159 129.459C382.764 131.107 380.593 132.381 378.646 133.28ZM306.555 166.544C307.005 166.544 307.828 165.121 309.026 162.274C312.32 154.332 313.967 145.192 313.967 134.853C313.967 131.557 312.919 116.423 310.822 89.4528C308.876 62.4821 307.903 48.772 307.903 48.3225C307.903 47.7231 307.978 47.4235 308.127 47.4235L308.577 47.6482C311.272 50.6449 313.068 52.1433 313.967 52.1433C314.266 52.1433 314.416 51.8436 314.416 51.2443C314.416 50.0456 312.619 44.8013 309.026 35.5114C305.582 26.2215 303.636 21.5765 303.187 21.5765C303.037 21.5765 302.812 21.9511 302.513 22.7003C299.968 28.544 298.695 32.215 298.695 33.7134C300.042 36.4104 300.716 39.9316 300.716 44.2769C300.716 47.873 301.764 65.1042 303.86 95.9707C306.106 126.837 307.229 144.368 307.229 148.563C307.229 153.358 307.005 157.554 306.555 161.15L306.331 164.971C306.331 166.02 306.406 166.544 306.555 166.544ZM234.913 148.788C235.213 148.788 235.512 148.489 235.812 147.889C236.111 147.14 236.635 145.941 237.384 144.293C240.528 136.502 242.1 127.436 242.1 117.098C242.1 113.651 241.127 98.5179 239.181 71.6971C237.234 44.7264 236.261 31.0163 236.261 30.5668C236.261 29.8176 236.336 29.443 236.486 29.443L236.935 29.6678C239.48 32.6645 241.202 34.1629 242.1 34.1629C242.4 34.1629 242.549 33.8632 242.549 33.2638C242.549 31.7655 240.753 26.5212 237.159 17.5309C233.716 8.39088 231.769 3.82085 231.32 3.82085C231.17 3.82085 230.946 4.12053 230.646 4.71988C228.101 10.5635 226.829 14.2345 226.829 15.7329C228.176 18.5798 228.85 22.101 228.85 26.2964C228.85 30.0424 229.898 47.3485 231.994 78.215C234.24 109.081 235.363 126.612 235.363 130.808C235.363 135.603 235.138 139.723 234.689 143.169L234.464 146.316C234.464 147.964 234.614 148.788 234.913 148.788ZM320.704 21.5765C320.854 21.5765 321.677 20.6026 323.174 18.6547L328.34 12.3616C330.137 10.2639 331.259 8.76548 331.709 7.86646C332.457 6.36809 332.832 5.01955 332.832 3.82085C332.832 1.27362 331.559 0 329.014 0C327.966 0 325.645 0.899029 322.052 2.69707C317.56 4.79479 313.742 6.36808 310.598 7.41694C305.058 9.06515 299.294 9.88925 293.305 9.88925C285.519 9.88925 278.782 7.64169 273.093 3.14658L271.071 1.5733C270.173 1.5733 269.499 2.99675 269.05 5.84366L273.317 12.1368C274.066 14.0847 274.44 16.4072 274.44 19.1042C274.44 20.6026 274.515 21.3518 274.665 21.3518C274.814 21.3518 275.114 20.7524 275.563 19.5537C276.312 17.6059 276.686 15.8827 276.686 14.3844C276.686 13.3355 276.536 12.4365 276.237 11.6873C281.028 14.2345 286.268 15.5082 291.957 15.5082C302.438 15.5082 313.293 12.5863 324.522 6.74267C325.72 6.14332 326.693 5.84366 327.442 5.84366C328.639 5.84366 329.463 6.51792 329.912 7.86646L326.094 11.9121V12.1368C323.848 14.684 322.201 17.1564 321.153 19.5537C320.704 20.6026 320.479 21.2769 320.479 21.5765H320.704ZM79.5023 159.801C80.1012 159.801 81.5984 157.179 83.9939 151.935C87.5873 154.332 90.8811 156.655 93.8756 158.902L94.3247 159.127C94.6242 159.127 94.8488 158.902 94.9985 158.453C97.9929 153.658 99.4901 150.511 99.4901 149.013C99.4901 148.564 97.7683 147.215 94.3247 144.967C91.0308 142.57 89.1593 141.371 88.7102 141.371C88.4107 141.371 86.9884 143.993 84.4431 149.238C83.5448 148.339 81.6732 146.915 78.8285 144.967C75.9838 143.02 74.3369 142.046 73.8877 142.046C73.5883 142.046 73.2888 142.345 72.9894 142.945L68.7223 152.16V152.384C72.3156 154.632 75.7592 157.029 79.0531 159.577L79.5023 159.801ZM369.214 89.9023C369.963 89.9023 371.46 87.2801 373.706 82.0358C377.449 84.4332 380.743 86.6808 383.587 88.7785L384.036 89.0033C384.336 89.0033 384.56 88.7785 384.71 88.329C387.705 83.5342 389.202 80.3876 389.202 78.8892C389.202 78.4397 387.48 77.0912 384.036 74.8437C380.742 72.5961 378.871 71.4723 378.422 71.4723C378.122 71.4723 377.823 71.6971 377.523 72.1466L374.155 79.114C373.256 78.215 371.385 76.8664 368.54 75.0684C365.695 73.1205 364.049 72.1466 363.599 72.1466C363.3 72.1466 362.327 73.7948 360.68 77.0912C359.183 80.2378 358.434 81.886 358.434 82.0358L358.659 82.4853C362.102 84.7329 365.546 87.1303 368.989 89.6775L369.214 89.9023ZM272.643 92.1498C272.943 92.1498 273.167 91.9251 273.317 91.4756C276.312 86.6808 277.809 83.4593 277.809 81.8111C277.809 81.5114 276.087 80.2378 272.643 77.9902C269.35 75.5928 267.478 74.3941 267.029 74.3941C266.729 74.3941 266.43 74.6938 266.13 75.2931L261.863 84.2834V84.7329C265.457 86.9805 268.9 89.3779 272.194 91.9251L272.643 92.1498ZM377.299 32.8143C374.005 31.316 372.358 30.0423 372.358 28.9935C372.358 28.544 372.732 28.0945 373.481 27.645C374.379 27.1954 375.128 26.9707 375.727 26.9707C377.074 26.9707 377.748 28.1694 377.748 30.5668C377.748 31.316 377.598 32.0652 377.299 32.8143ZM343.387 60.4593C344.136 60.4593 348.777 58.7362 357.311 55.2899C360.605 53.7915 364.123 51.6189 367.866 48.772C371.759 45.9251 374.828 42.9283 377.074 39.7818C379.17 40.9805 380.443 42.0293 380.892 42.9283C382.839 40.2313 383.812 38.3583 383.812 37.3095C383.213 36.4104 381.865 35.3616 379.769 34.1629C380.817 31.1661 381.341 28.544 381.341 26.2964C381.341 23 380.144 21.3518 377.748 21.3518C376.251 21.3518 374.529 22.2508 372.583 24.0489C369.888 26.4463 368.54 29.0684 368.54 31.9153C368.54 34.3127 370.636 36.5603 374.829 38.658C371.684 41.9544 366.968 45.4756 360.68 49.2215C349.001 56.2638 343.162 59.9349 343.162 60.2345C343.162 60.3844 343.237 60.4593 343.387 60.4593ZM283.872 42.2541C280.579 40.7557 278.932 39.4821 278.932 38.4332C278.932 37.9837 279.381 37.5342 280.279 37.0847C281.178 36.4853 281.851 36.1857 282.3 36.1857C283.648 36.1857 284.322 37.2345 284.322 39.3322C284.322 40.3811 284.172 41.355 283.872 42.2541ZM249.961 69.6743C251.009 69.6743 255.65 68.0261 263.885 64.7296C267.179 63.2313 270.697 61.0586 274.44 58.2117C278.333 55.3648 281.477 52.3681 283.872 49.2215C285.819 50.4202 287.017 51.4691 287.466 52.3681C289.412 49.671 290.385 47.7231 290.385 46.5244C289.786 45.7752 288.439 44.8013 286.343 43.6026C287.391 40.6059 287.915 37.9837 287.915 35.7362C287.915 32.4397 286.717 30.7915 284.322 30.7915C282.974 30.7915 281.252 31.6906 279.156 33.4886C276.611 35.886 275.338 38.5082 275.338 41.3551C275.338 43.7524 277.36 46 281.402 48.0977C278.258 51.2443 273.542 54.7655 267.253 58.6612C262.612 61.3583 258.046 64.1303 253.554 66.9772C252.805 67.2769 252.132 67.6515 251.533 68.101C250.335 68.8502 249.736 69.3746 249.736 69.6743H249.961ZM324.073 128.785L326.992 128.111C337.772 125.264 344.136 123.166 346.082 121.818C349.076 119.72 352.221 116.349 355.514 111.704C358.359 107.658 359.781 105.111 359.781 104.062C359.781 101.215 354.242 99.7915 343.162 99.7915C338.072 99.7915 335.003 99.8664 333.954 100.016C330.96 100.466 328.939 101.59 327.891 103.388C324.896 108.482 323.399 111.179 323.399 111.479C323.399 111.778 323.923 111.928 324.971 111.928L332.382 111.704C343.013 111.704 348.328 112.378 348.328 113.726C348.328 114.476 344.734 116.723 337.548 120.469C329.014 124.964 324.522 127.736 324.073 128.785ZM41.0986 52.3681C81.823 36.1857 119.777 21.5016 154.962 8.31596C155.411 7.86645 156.085 6.66776 156.983 4.71988L157.208 4.04561C157.208 3.74593 157.133 3.5961 156.983 3.5961C156.534 3.5961 127.114 14.6091 68.7223 36.6352L43.3445 46.2997C42.2964 48.3974 41.5478 50.4202 41.0986 52.3681ZM107.8 195.762C123.371 189.169 136.995 183.85 148.674 179.805C149.123 179.355 149.722 178.156 150.47 176.208L150.695 175.309C150.695 175.16 150.62 175.085 150.47 175.085C150.021 175.085 136.546 179.954 110.046 189.694C108.997 191.792 108.249 193.814 107.8 195.762ZM25.3778 112.603L28.0728 111.928C38.8528 109.081 45.1411 107.059 46.9378 105.86C49.9322 103.612 53.0015 100.316 56.1457 95.9707C59.2898 91.6254 60.8619 88.9283 60.8619 87.8795C60.8619 85.0326 54.7233 83.6091 42.4461 83.6091C38.5534 83.6091 36.083 83.684 35.0349 83.8339C32.0405 84.2834 30.0192 85.4821 28.9712 87.43C25.9767 92.3746 24.4795 95.0717 24.4795 95.5212C24.4795 95.671 24.9287 95.7459 25.827 95.7459L33.4628 95.5212C44.0931 95.5212 49.4082 96.2703 49.4082 97.7687C49.4082 98.3681 45.8149 100.541 38.6282 104.287C31.4416 108.033 26.9499 110.805 25.1533 112.603H25.3778ZM157.208 84.7329C157.956 84.7329 159.154 83.9837 160.801 82.4853C163.047 80.5375 164.17 78.4397 164.17 76.1922C164.17 72.5961 160.502 69.5993 153.165 67.202C150.021 66.0033 147.251 64.7296 144.856 63.3811C142.61 62.0326 141.487 60.9837 141.487 60.2345C141.487 59.9349 141.861 59.6352 142.61 59.3355C145.604 57.987 149.872 57.3127 155.411 57.3127C157.358 57.3127 158.555 57.5375 159.005 57.987C160.202 59.1857 160.801 60.0847 160.801 60.684V60.9088H161.026C161.625 60.9088 162.673 60.1596 164.17 58.6612C164.769 58.0619 165.068 57.3876 165.068 56.6384C165.068 55.5896 164.469 54.7655 163.272 54.1661C161.924 53.4169 159.978 53.0423 157.432 53.0423C151.294 53.0423 145.455 54.8404 139.915 58.4365C137.519 59.9349 136.322 61.3583 136.322 62.7068C136.322 64.355 138.118 66.1531 141.712 68.101C147.102 70.6482 151.369 72.4463 154.513 73.4951C158.406 75.8925 160.352 78.0651 160.352 80.013V80.6873L148.674 76.8664C141.637 74.3192 137.22 72.5961 135.423 71.6971C131.381 69.2997 128.836 67.0521 127.788 64.9544L127.563 67.202C127.563 71.2476 129.434 74.3941 133.178 76.6417C137.819 79.3388 145.754 82.0358 156.983 84.7329H157.208ZM398.41 146.765C393.169 146.765 388.753 144.892 385.159 141.147C390.25 135.453 392.795 128.186 392.795 119.345C392.795 115.899 391.672 112.153 389.426 108.107C386.881 103.313 384.186 100.915 381.341 100.915C378.048 100.915 375.427 102.938 373.481 106.984C371.535 110.879 370.561 116.124 370.561 122.717C370.561 127.212 371.31 131.557 372.807 135.752L362.027 140.472C351.098 144.967 343.462 148.414 339.12 150.811C331.634 155.007 325.57 159.726 320.929 164.971C319.132 167.068 317.335 169.241 315.539 171.489C313.742 173.436 312.02 175.459 310.373 177.557C304.684 183.101 299.144 185.873 293.754 185.873C290.61 185.873 288.14 184.749 286.343 182.502C284.846 180.404 284.097 177.632 284.097 174.186C284.097 169.541 285.519 163.248 288.364 155.306C291.359 147.365 292.856 142.72 292.856 141.371C292.856 141.072 292.706 140.922 292.407 140.922C292.107 140.922 291.583 141.596 290.835 142.945C284.097 156.28 280.728 167.068 280.728 175.309C280.728 181.153 282.45 186.173 285.894 190.368C289.188 194.414 293.006 196.436 297.347 196.436C302.737 196.436 307.978 193.365 313.068 187.221C321.902 177.182 328.564 170.365 333.056 166.769C335.452 164.821 339.943 162.349 346.531 159.352C349.975 157.704 355.14 155.381 362.027 152.384L376.625 146.316C378.272 148.863 380.443 151.335 383.138 153.733C388.378 158.078 393.469 160.251 398.41 160.251C403.65 160.251 408.291 157.104 412.334 150.811C416.825 143.469 419.071 133.355 419.071 120.469C419.071 115.974 418.248 102.189 416.601 79.114C414.954 56.0391 414.13 44.3518 414.13 44.0521C414.13 42.8534 414.355 42.5538 414.804 43.1531C418.547 47.4984 420.419 48.6971 420.419 46.7492C420.419 46.1498 420.269 45.1759 419.97 43.8274C419.52 42.4788 418.173 38.7329 415.927 32.5896C415.628 31.9902 415.403 31.3909 415.253 30.7915C412.558 23.899 410.911 19.7036 410.313 18.2052C409.863 17.456 409.489 17.0814 409.19 17.0814C409.04 17.0814 408.815 17.456 408.516 18.2052C405.971 24.0489 404.698 27.7199 404.698 29.2182C406.046 31.9153 406.719 35.4365 406.719 39.7818C406.719 44.4267 407.692 59.9348 409.639 86.3062C411.585 112.528 412.558 127.511 412.558 131.257C412.558 137.401 411.96 140.922 410.762 141.821C406.719 145.117 402.602 146.765 398.41 146.765ZM224.807 182.951C237.084 182.951 250.485 178.98 265.008 171.039C276.237 164.596 284.846 157.928 290.835 151.036C294.578 146.84 296.449 140.622 296.449 132.381C296.449 128.186 294.952 123.166 291.957 117.322C288.514 110.28 286.717 106.384 286.568 105.635C288.813 106.384 290.535 106.759 291.733 106.759C292.781 106.759 293.305 106.459 293.305 105.86C293.305 105.261 292.856 104.511 291.957 103.612C284.022 95.671 279.905 91.7003 279.605 91.7003C279.306 91.7003 279.081 92.2248 278.932 93.2736C277.734 99.2671 277.135 102.563 277.135 103.163C277.135 104.062 277.509 104.886 278.258 105.635C279.156 106.235 279.905 107.583 280.504 109.681C282.151 115.674 284.621 121.892 287.915 128.335C290.61 133.73 291.957 136.577 291.957 136.876C291.957 139.124 288.589 142.87 281.851 148.114C274.515 153.808 266.28 158.603 257.147 162.498C245.619 167.293 234.764 169.691 224.583 169.691C212.904 169.691 203.996 165.87 197.857 158.228C193.366 152.534 191.12 146.316 191.12 139.573C191.12 137.625 191.569 134.629 192.467 130.583C193.665 125.938 194.264 123.166 194.264 122.267C194.264 121.668 194.114 121.368 193.815 121.368C193.366 121.368 192.917 121.967 192.467 123.166C189.772 130.658 188.425 138.3 188.425 146.091C188.425 151.186 189.024 155.306 190.222 158.453C196.51 174.785 208.038 182.951 224.807 182.951ZM191.12 133.73C186.179 133.73 181.238 131.857 176.297 128.111C172.105 124.365 167.913 120.694 163.721 117.098C149.797 105.111 133.776 93.0489 115.66 80.9121C108.174 75.8176 100.538 70.873 92.7526 66.0782C92.004 65.7785 91.9292 65.4039 92.5281 64.9544C101.212 57.7622 117.457 48.6222 141.263 37.5342C164.919 26.4463 179.891 20.9023 186.179 20.9023C190.222 20.9023 192.243 21.6515 192.243 23.1498C192.243 23.4495 192.168 23.7492 192.018 24.0489C190.671 26.5961 186.404 31.9153 179.217 40.0065C178.319 40.9055 177.046 42.9283 175.399 46.0749C173.602 49.3713 172.554 51.7687 172.255 53.2671C171.806 55.6645 171.731 56.8632 172.03 56.8632C172.18 56.8632 172.704 55.9642 173.602 54.1661C174.95 51.3192 177.495 47.7231 181.238 43.3778L188.425 35.2866C194.713 27.3453 197.857 20.7524 197.857 15.5082C197.857 13.1108 197.408 11.4625 196.51 10.5635C195.612 9.6645 193.965 9.21499 191.569 9.21499C183.634 9.21499 167.09 14.9837 141.936 26.5212C117.082 37.759 100.838 46.8241 93.2018 53.7166C92.1538 54.7655 91.2554 57.2378 90.5068 61.1335C89.7582 64.7296 89.3839 68.1759 89.3839 71.4723C89.3839 74.0195 89.6085 75.443 90.0577 75.7427C103.533 86.5309 117.082 97.3192 130.707 108.107C144.781 119.945 152.716 129.459 154.513 136.651C154.812 138 154.438 139.049 153.39 139.798C149.946 142.495 142.385 146.316 130.707 151.261C119.777 155.906 112.142 159.427 107.8 161.824C100.164 165.87 94.0253 170.515 89.3839 175.759C87.737 177.857 86.0152 179.954 84.2185 182.052L78.8285 188.121C73.2888 193.814 67.7491 196.661 62.2094 196.661C59.215 196.661 56.8943 195.463 55.2473 193.065C53.6004 190.967 52.7769 188.195 52.7769 184.749C52.7769 180.254 54.1993 174.036 57.044 166.094C59.8887 158.303 61.3111 153.733 61.3111 152.384C61.3111 152.085 61.3111 151.86 61.3111 151.71C60.8619 151.71 60.263 152.459 59.5144 153.958C52.7769 167.143 49.4082 177.782 49.4082 185.873C49.4082 191.866 51.13 196.886 54.5736 200.932C57.8675 204.977 61.6854 207 66.0273 207C71.2676 207 76.433 204.003 81.5235 198.01C90.3571 188.121 97.0197 181.378 101.511 177.782C104.057 175.834 108.623 173.287 115.211 170.14C118.655 168.492 123.82 166.244 130.707 163.397C141.787 158.752 148.823 155.007 151.818 152.16C156.01 148.264 158.106 142.57 158.106 135.078C158.106 133.13 157.133 129.759 155.187 124.964C154.588 123.616 154.363 122.941 154.513 122.941C154.812 122.941 155.262 123.241 155.86 123.84C161.55 129.085 167.164 134.329 172.704 139.573C178.693 144.668 184.832 147.215 191.12 147.215C196.21 147.215 200.103 146.466 202.798 144.967C205.493 143.319 207.814 140.922 209.76 137.775C214.402 130.433 216.722 120.244 216.722 107.208C216.722 102.863 215.824 89.1531 214.027 66.0782C212.38 43.0033 211.557 31.316 211.557 31.0163C211.557 29.8176 211.781 29.5179 212.231 30.1173C215.974 34.4625 217.845 35.6612 217.845 33.7134C217.845 33.114 217.695 32.1401 217.396 30.7915C216.947 29.2932 215.599 25.6222 213.354 19.7785C213.204 19.0293 212.979 18.3551 212.68 17.7557C210.135 10.8632 208.488 6.66775 207.739 5.16938C207.29 4.4202 206.99 4.04561 206.841 4.04561C206.541 4.04561 206.242 4.34528 205.942 4.94463C203.547 10.9381 202.349 14.684 202.349 16.1824C203.547 18.8795 204.146 22.4007 204.146 26.7459C204.146 31.3909 205.119 46.899 207.065 73.2704C209.012 99.4919 209.985 114.476 209.985 118.221C209.985 124.365 209.386 127.886 208.188 128.785C206.391 130.433 204.221 131.707 201.675 132.606C199.13 133.355 195.612 133.73 191.12 133.73ZM81.0744 111.704C81.3738 112.752 81.5984 113.651 81.7481 114.401C81.8978 115.15 81.9727 115.674 81.9727 115.974C79.128 115.974 74.7112 117.472 68.7223 120.469C60.7871 124.515 52.4775 130.208 43.7936 137.55C38.2539 142.345 32.7891 147.14 27.3991 151.935C22.9074 155.231 18.1912 156.879 13.2504 156.879C10.1062 156.879 7.71068 155.756 6.06374 153.508C4.26708 151.261 3.36875 148.414 3.36875 144.967C3.36875 140.322 4.86596 134.104 7.86039 126.313C10.7051 118.371 12.1275 113.726 12.1275 112.378C12.1275 112.078 12.0526 111.928 11.9029 111.928C11.4537 111.928 10.8548 112.603 10.1062 113.951C3.36875 127.137 0 137.85 0 146.091C0 152.085 1.72181 157.104 5.16542 161.15C8.4593 165.195 12.352 167.218 16.8437 167.218C20.8862 167.218 25.4527 165.27 30.5432 161.375C33.6874 158.977 36.7567 156.505 39.7511 153.958C43.4942 150.811 47.3121 147.664 51.2049 144.518C64.3804 134.029 75.7592 128.785 85.3414 128.785C92.2286 128.785 98.0678 130.134 102.859 132.831C104.656 133.73 105.629 133.73 105.778 132.831L107.351 124.065C107.65 122.117 106.901 120.844 105.105 120.244C100.463 118.746 96.6454 116.948 93.651 114.85C90.5068 112.752 88.6353 110.805 88.0364 109.007C85.6409 101.814 84.0688 95.8958 83.3202 91.2508C85.7157 92.7492 87.4375 93.4984 88.4856 93.4984C88.9347 93.4984 89.1593 93.1987 89.1593 92.5993C89.1593 91.8502 88.6353 90.7264 87.5873 89.228L79.9515 76.8664C79.2028 75.6677 78.6788 75.0684 78.3794 75.0684C78.0799 75.0684 77.6308 75.6677 77.0319 76.8664L74.1123 84.2834C75.0106 85.4821 75.6095 86.5309 75.9089 87.43C75.9089 87.7296 75.9838 88.5537 76.1335 89.9023C77.1816 97.0945 78.9034 104.287 81.2989 111.479L81.0744 111.704Z" fill="url(#paint0_linear_69_5671)"/>
<defs>
<linearGradient id="paint0_linear_69_5671" x1="222" y1="0" x2="222" y2="548" gradientUnits="userSpaceOnUse">
<stop stop-color="#07BCB6"/>
<stop offset="1" stop-color="white"/>
</linearGradient>
</defs>
</svg>
