<svg width="57" height="57" viewBox="0 0 57 57" fill="none" xmlns="http://www.w3.org/2000/svg">
<path d="M30.6716 3.96853L34.5446 8.11246C35.4318 9.06163 36.6858 9.58108 37.9843 9.5372L43.6531 9.34562C45.6779 9.27719 47.3377 10.9369 47.2693 12.9618L47.0777 18.6306C47.0338 19.9291 47.5533 21.1831 48.5025 22.0703L52.6464 25.9432C54.1266 27.3266 54.1266 29.674 52.6464 31.0574L48.5025 34.9303C47.5533 35.8175 47.0338 37.0715 47.0777 38.37L47.2693 44.0388C47.3377 46.0637 45.6779 47.7234 43.6531 47.655L37.9843 47.4634C36.6858 47.4196 35.4318 47.939 34.5446 48.8882L30.6716 53.0321C29.2882 54.5123 26.9409 54.5123 25.5575 53.0321L21.6845 48.8882C20.7974 47.939 19.5434 47.4196 18.2449 47.4634L12.5761 47.655C10.5512 47.7234 8.89144 46.0637 8.95987 44.0388L9.15145 38.37C9.19533 37.0715 8.67588 35.8175 7.72671 34.9303L3.58278 31.0574C2.10261 29.674 2.10261 27.3266 3.58278 25.9432L7.72671 22.0703C8.67588 21.1831 9.19533 19.9291 9.15145 18.6306L8.95987 12.9618C8.89144 10.9369 10.5512 9.27719 12.5761 9.34562L18.2449 9.5372C19.5434 9.58108 20.7974 9.06163 21.6845 8.11246L25.5575 3.96853C26.9409 2.48835 29.2882 2.48835 30.6716 3.96853Z" stroke="#07BCB6"/>
</svg>
