<?xml version="1.0" encoding="UTF-8" standalone="no"?>
<svg
   viewBox="0 0 20 20"
   fill="currentColor"
   aria-hidden="true"
   version="1.1"
   id="svg6"
   sodipodi:docname="arrow1.svg"
   inkscape:version="1.2.2 (1:1.2.2+202212051550+b0a8486541)"
   xmlns:inkscape="http://www.inkscape.org/namespaces/inkscape"
   xmlns:sodipodi="http://sodipodi.sourceforge.net/DTD/sodipodi-0.dtd"
   xmlns="http://www.w3.org/2000/svg"
   xmlns:svg="http://www.w3.org/2000/svg">
  <defs
     id="defs10" />
  <sodipodi:namedview
     id="namedview8"
     pagecolor="#ffffff"
     bordercolor="#999999"
     borderopacity="1"
     inkscape:showpageshadow="0"
     inkscape:pageopacity="0"
     inkscape:pagecheckerboard="0"
     inkscape:deskcolor="#d1d1d1"
     showgrid="false"
     inkscape:zoom="11.8"
     inkscape:cx="-5.0423729"
     inkscape:cy="10.042373"
     inkscape:window-width="1920"
     inkscape:window-height="1015"
     inkscape:window-x="0"
     inkscape:window-y="0"
     inkscape:window-maximized="1"
     inkscape:current-layer="svg6" />
  <path
     fill-rule="evenodd"
     d="M4.25 5.5a.75.75 0 00-.75.75v8.5c0 .414.336.75.75.75h8.5a.75.75 0 00.75-.75v-4a.75.75 0 011.5 0v4A2.25 2.25 0 0112.75 17h-8.5A2.25 2.25 0 012 14.75v-8.5A2.25 2.25 0 014.25 4h5a.75.75 0 010 1.5h-5z"
     clip-rule="evenodd"
     id="path2"
     style="fill:#ffffff" />
  <path
     fill-rule="evenodd"
     d="M6.194 12.753a.75.75 0 001.06.053L16.5 4.44v2.81a.75.75 0 001.5 0v-4.5a.75.75 0 00-.75-.75h-4.5a.75.75 0 000 1.5h2.553l-9.056 8.194a.75.75 0 00-.053 1.06z"
     clip-rule="evenodd"
     id="path4"
     style="fill:#ffffff" />
</svg>
