<svg width="134" height="27" viewBox="0 0 134 27" fill="none" xmlns="http://www.w3.org/2000/svg">
<path d="M5.39063 2.62926H7.2358V8.29688C7.2358 8.93324 7.08381 9.49006 6.77983 9.96733C6.47869 10.4446 6.05682 10.8168 5.5142 11.0838C4.97159 11.348 4.33949 11.4801 3.6179 11.4801C2.89347 11.4801 2.25994 11.348 1.71733 11.0838C1.17472 10.8168 0.752841 10.4446 0.451705 9.96733C0.150568 9.49006 0 8.93324 0 8.29688V2.62926H1.84517V8.1392C1.84517 8.47159 1.91761 8.76705 2.0625 9.02557C2.21023 9.28409 2.41761 9.48722 2.68466 9.63494C2.9517 9.78267 3.26278 9.85653 3.6179 9.85653C3.97585 9.85653 4.28693 9.78267 4.55114 9.63494C4.81818 9.48722 5.02415 9.28409 5.16903 9.02557C5.31676 8.76705 5.39063 8.47159 5.39063 8.1392V2.62926ZM2.31818 1.73438C2.07386 1.73438 1.86364 1.64915 1.6875 1.47869C1.51136 1.3054 1.4233 1.10085 1.4233 0.865057C1.4233 0.62358 1.51136 0.419034 1.6875 0.25142C1.86364 0.0838068 2.07386 0 2.31818 0C2.56534 0 2.77415 0.0838068 2.9446 0.25142C3.1179 0.419034 3.20455 0.62358 3.20455 0.865057C3.20455 1.10085 3.1179 1.3054 2.9446 1.47869C2.77415 1.64915 2.56534 1.73438 2.31818 1.73438ZM4.92614 1.73438C4.68182 1.73438 4.47159 1.64915 4.29545 1.47869C4.11932 1.3054 4.03125 1.10085 4.03125 0.865057C4.03125 0.62358 4.11932 0.419034 4.29545 0.25142C4.47159 0.0838068 4.68182 0 4.92614 0C5.1733 0 5.3821 0.0838068 5.55256 0.25142C5.72585 0.419034 5.8125 0.62358 5.8125 0.865057C5.8125 1.10085 5.72585 1.3054 5.55256 1.47869C5.3821 1.64915 5.1733 1.73438 4.92614 1.73438Z" fill="white"/>
<path d="M13.4883 5.1392C13.4542 4.79545 13.3079 4.52841 13.0494 4.33807C12.7908 4.14773 12.44 4.05256 11.9968 4.05256C11.6957 4.05256 11.4414 4.09517 11.234 4.1804C11.0266 4.26278 10.8675 4.37784 10.7567 4.52557C10.6488 4.6733 10.5948 4.84091 10.5948 5.02841C10.5891 5.18466 10.6218 5.32102 10.6928 5.4375C10.7667 5.55398 10.8675 5.65483 10.9954 5.74006C11.1232 5.82244 11.271 5.89489 11.4386 5.95739C11.6062 6.01705 11.7852 6.06818 11.9755 6.1108L12.7596 6.2983C13.1403 6.38352 13.4897 6.49716 13.8079 6.6392C14.1261 6.78125 14.4016 6.95597 14.6346 7.16335C14.8675 7.37074 15.0479 7.61506 15.1758 7.89631C15.3065 8.17756 15.3732 8.5 15.3761 8.86364C15.3732 9.39773 15.2369 9.8608 14.967 10.2528C14.6999 10.642 14.3136 10.9446 13.8079 11.1605C13.305 11.3736 12.6985 11.4801 11.9883 11.4801C11.2837 11.4801 10.6701 11.3722 10.1474 11.1562C9.62749 10.9403 9.22124 10.6207 8.92862 10.1974C8.63885 9.77131 8.48686 9.24432 8.47266 8.61648H10.2582C10.2781 8.90909 10.3619 9.15341 10.5096 9.34943C10.6602 9.54261 10.8604 9.68892 11.1104 9.78835C11.3633 9.88494 11.6488 9.93324 11.967 9.93324C12.2795 9.93324 12.5508 9.88778 12.7809 9.79688C13.0138 9.70597 13.1942 9.57955 13.3221 9.41761C13.4499 9.25568 13.5139 9.0696 13.5139 8.85938C13.5139 8.66335 13.4556 8.49858 13.3391 8.36506C13.2255 8.23153 13.0579 8.1179 12.8363 8.02415C12.6175 7.9304 12.3491 7.84517 12.0309 7.76847L11.0806 7.52983C10.3448 7.35085 9.76385 7.07102 9.33771 6.69034C8.91158 6.30966 8.69993 5.79688 8.70277 5.15199C8.69993 4.62358 8.84055 4.16193 9.12465 3.76705C9.41158 3.37216 9.80504 3.06392 10.305 2.84233C10.805 2.62074 11.3732 2.50994 12.0096 2.50994C12.6573 2.50994 13.2227 2.62074 13.7056 2.84233C14.1914 3.06392 14.5692 3.37216 14.8391 3.76705C15.109 4.16193 15.2482 4.61932 15.2567 5.1392H13.4883Z" fill="white"/>
<path d="M16.6172 11.3565V2.62926H18.4624V6.47727H18.5774L21.718 2.62926H23.9297L20.6911 6.53693L23.968 11.3565H21.7607L19.37 7.76847L18.4624 8.87642V11.3565H16.6172Z" fill="white"/>
<path d="M30.2812 2.62926H32.1264V8.29688C32.1264 8.93324 31.9744 9.49006 31.6705 9.96733C31.3693 10.4446 30.9474 10.8168 30.4048 11.0838C29.8622 11.348 29.2301 11.4801 28.5085 11.4801C27.7841 11.4801 27.1506 11.348 26.608 11.0838C26.0653 10.8168 25.6435 10.4446 25.3423 9.96733C25.0412 9.49006 24.8906 8.93324 24.8906 8.29688V2.62926H26.7358V8.1392C26.7358 8.47159 26.8082 8.76705 26.9531 9.02557C27.1009 9.28409 27.3082 9.48722 27.5753 9.63494C27.8423 9.78267 28.1534 9.85653 28.5085 9.85653C28.8665 9.85653 29.1776 9.78267 29.4418 9.63494C29.7088 9.48722 29.9148 9.28409 30.0597 9.02557C30.2074 8.76705 30.2812 8.47159 30.2812 8.1392V2.62926ZM27.2088 1.73438C26.9645 1.73438 26.7543 1.64915 26.5781 1.47869C26.402 1.3054 26.3139 1.10085 26.3139 0.865057C26.3139 0.62358 26.402 0.419034 26.5781 0.25142C26.7543 0.0838068 26.9645 0 27.2088 0C27.456 0 27.6648 0.0838068 27.8352 0.25142C28.0085 0.419034 28.0952 0.62358 28.0952 0.865057C28.0952 1.10085 28.0085 1.3054 27.8352 1.47869C27.6648 1.64915 27.456 1.73438 27.2088 1.73438ZM29.8168 1.73438C29.5724 1.73438 29.3622 1.64915 29.1861 1.47869C29.0099 1.3054 28.9219 1.10085 28.9219 0.865057C28.9219 0.62358 29.0099 0.419034 29.1861 0.25142C29.3622 0.0838068 29.5724 0 29.8168 0C30.0639 0 30.2727 0.0838068 30.4432 0.25142C30.6165 0.419034 30.7031 0.62358 30.7031 0.865057C30.7031 1.10085 30.6165 1.3054 30.4432 1.47869C30.2727 1.64915 30.0639 1.73438 29.8168 1.73438Z" fill="white"/>
<path d="M36.7383 11.3565H33.6445V2.62926H36.7639C37.6417 2.62926 38.3974 2.80398 39.0309 3.15341C39.6644 3.5 40.1516 3.99858 40.4925 4.64915C40.8363 5.29972 41.0082 6.07813 41.0082 6.98438C41.0082 7.89347 40.8363 8.67472 40.4925 9.32812C40.1516 9.98153 39.6616 10.483 39.0224 10.8324C38.386 11.1818 37.6246 11.3565 36.7383 11.3565ZM35.4897 9.77557H36.6616C37.207 9.77557 37.6658 9.67898 38.038 9.4858C38.413 9.28977 38.6942 8.98722 38.8817 8.57812C39.0721 8.16619 39.1673 7.63494 39.1673 6.98438C39.1673 6.33949 39.0721 5.8125 38.8817 5.40341C38.6942 4.99432 38.4144 4.69318 38.0423 4.5C37.6701 4.30682 37.2113 4.21023 36.6658 4.21023H35.4897V9.77557Z" fill="white"/>
<path d="M43.3871 11.3565H41.4098L44.4226 2.62926H46.8004L49.8089 11.3565H47.8317L45.6456 4.62358H45.5774L43.3871 11.3565ZM43.2635 7.92614H47.9339V9.36648H43.2635V7.92614Z" fill="white"/>
<path d="M50.8594 11.3565V2.62926H54.3026C54.9617 2.62926 55.5242 2.74716 55.9901 2.98295C56.4588 3.21591 56.8153 3.54688 57.0597 3.97585C57.3068 4.40199 57.4304 4.90341 57.4304 5.48011C57.4304 6.05966 57.3054 6.55824 57.0554 6.97585C56.8054 7.39062 56.4432 7.70881 55.9688 7.9304C55.4972 8.15199 54.9261 8.26278 54.2557 8.26278H51.9503V6.77983H53.9574C54.3097 6.77983 54.6023 6.73153 54.8352 6.63494C55.0682 6.53835 55.2415 6.39347 55.3551 6.20028C55.4716 6.0071 55.5298 5.76705 55.5298 5.48011C55.5298 5.19034 55.4716 4.94602 55.3551 4.74716C55.2415 4.5483 55.0668 4.39773 54.831 4.29545C54.598 4.19034 54.304 4.13778 53.9489 4.13778H52.7045V11.3565H50.8594ZM55.5724 7.38494L57.7415 11.3565H55.7045L53.5824 7.38494H55.5724Z" fill="white"/>
<path d="M66.9023 2.62926H68.7475V8.29688C68.7475 8.93324 68.5955 9.49006 68.2915 9.96733C67.9904 10.4446 67.5685 10.8168 67.0259 11.0838C66.4833 11.348 65.8512 11.4801 65.1296 11.4801C64.4052 11.4801 63.7717 11.348 63.229 11.0838C62.6864 10.8168 62.2646 10.4446 61.9634 9.96733C61.6623 9.49006 61.5117 8.93324 61.5117 8.29688V2.62926H63.3569V8.1392C63.3569 8.47159 63.4293 8.76705 63.5742 9.02557C63.7219 9.28409 63.9293 9.48722 64.1964 9.63494C64.4634 9.78267 64.7745 9.85653 65.1296 9.85653C65.4876 9.85653 65.7987 9.78267 66.0629 9.63494C66.3299 9.48722 66.5359 9.28409 66.6808 9.02557C66.8285 8.76705 66.9023 8.47159 66.9023 8.1392V2.62926Z" fill="white"/>
<path d="M77.5653 2.62926V11.3565H75.9716L72.1747 5.86364H72.1108V11.3565H70.2656V2.62926H71.8849L75.652 8.1179H75.7287V2.62926H77.5653Z" fill="white"/>
<path d="M80.935 2.62926V11.3565H79.0898V2.62926H80.935Z" fill="white"/>
<path d="M84.0298 2.62926L86.1392 9.25994H86.2202L88.3338 2.62926H90.3793L87.3707 11.3565H84.9929L81.9801 2.62926H84.0298Z" fill="white"/>
<path d="M91.4297 11.3565V2.62926H97.3104V4.15057H93.2749V6.23011H97.0078V7.75142H93.2749V9.83523H97.3274V11.3565H91.4297Z" fill="white"/>
<path d="M98.7773 11.3565V2.62926H102.221C102.88 2.62926 103.442 2.74716 103.908 2.98295C104.377 3.21591 104.733 3.54688 104.978 3.97585C105.225 4.40199 105.348 4.90341 105.348 5.48011C105.348 6.05966 105.223 6.55824 104.973 6.97585C104.723 7.39062 104.361 7.70881 103.887 7.9304C103.415 8.15199 102.844 8.26278 102.174 8.26278H99.8683V6.77983H101.875C102.228 6.77983 102.52 6.73153 102.753 6.63494C102.986 6.53835 103.159 6.39347 103.273 6.20028C103.39 6.0071 103.448 5.76705 103.448 5.48011C103.448 5.19034 103.39 4.94602 103.273 4.74716C103.159 4.5483 102.985 4.39773 102.749 4.29545C102.516 4.19034 102.222 4.13778 101.867 4.13778H100.623V11.3565H98.7773ZM103.49 7.38494L105.659 11.3565H103.623L101.5 7.38494H103.49Z" fill="white"/>
<path d="M111.387 5.1392C111.353 4.79545 111.206 4.52841 110.948 4.33807C110.689 4.14773 110.338 4.05256 109.895 4.05256C109.594 4.05256 109.34 4.09517 109.132 4.1804C108.925 4.26278 108.766 4.37784 108.655 4.52557C108.547 4.6733 108.493 4.84091 108.493 5.02841C108.488 5.18466 108.52 5.32102 108.591 5.4375C108.665 5.55398 108.766 5.65483 108.894 5.74006C109.022 5.82244 109.169 5.89489 109.337 5.95739C109.505 6.01705 109.684 6.06818 109.874 6.1108L110.658 6.2983C111.039 6.38352 111.388 6.49716 111.706 6.6392C112.025 6.78125 112.3 6.95597 112.533 7.16335C112.766 7.37074 112.946 7.61506 113.074 7.89631C113.205 8.17756 113.272 8.5 113.275 8.86364C113.272 9.39773 113.135 9.8608 112.865 10.2528C112.598 10.642 112.212 10.9446 111.706 11.1605C111.203 11.3736 110.597 11.4801 109.887 11.4801C109.182 11.4801 108.569 11.3722 108.046 11.1562C107.526 10.9403 107.12 10.6207 106.827 10.1974C106.537 9.77131 106.385 9.24432 106.371 8.61648H108.157C108.176 8.90909 108.26 9.15341 108.408 9.34943C108.559 9.54261 108.759 9.68892 109.009 9.78835C109.262 9.88494 109.547 9.93324 109.865 9.93324C110.178 9.93324 110.449 9.88778 110.679 9.79688C110.912 9.70597 111.093 9.57955 111.221 9.41761C111.348 9.25568 111.412 9.0696 111.412 8.85938C111.412 8.66335 111.354 8.49858 111.238 8.36506C111.124 8.23153 110.956 8.1179 110.735 8.02415C110.516 7.9304 110.248 7.84517 109.929 7.76847L108.979 7.52983C108.243 7.35085 107.662 7.07102 107.236 6.69034C106.81 6.30966 106.598 5.79688 106.601 5.15199C106.598 4.62358 106.739 4.16193 107.023 3.76705C107.31 3.37216 107.703 3.06392 108.203 2.84233C108.703 2.62074 109.272 2.50994 109.908 2.50994C110.556 2.50994 111.121 2.62074 111.604 2.84233C112.09 3.06392 112.468 3.37216 112.738 3.76705C113.007 4.16193 113.147 4.61932 113.155 5.1392H111.387Z" fill="white"/>
<path d="M116.361 2.62926V11.3565H114.516V2.62926H116.361Z" fill="white"/>
<path d="M117.547 4.15057V2.62926H124.714V4.15057H122.042V11.3565H120.218V4.15057H117.547Z" fill="white"/>
<path d="M125.383 2.62926H127.45L129.44 6.38778H129.525L131.515 2.62926H133.582L130.399 8.27131V11.3565H128.566V8.27131L125.383 2.62926Z" fill="white"/>
<path d="M0 17.6293H2.27557L4.67898 23.4929H4.78125L7.18466 17.6293H9.46023V26.3565H7.67045V20.6761H7.59801L5.33949 26.3139H4.12074L1.86222 20.6548H1.78977V26.3565H0V17.6293Z" fill="white"/>
<path d="M10.9805 26.3565V17.6293H16.8612V19.1506H12.8256V21.2301H16.5586V22.7514H12.8256V24.8352H16.8782V26.3565H10.9805Z" fill="white"/>
<path d="M23.0625 20.1392C23.0284 19.7955 22.8821 19.5284 22.6236 19.3381C22.3651 19.1477 22.0142 19.0526 21.571 19.0526C21.2699 19.0526 21.0156 19.0952 20.8082 19.1804C20.6009 19.2628 20.4418 19.3778 20.331 19.5256C20.223 19.6733 20.169 19.8409 20.169 20.0284C20.1634 20.1847 20.196 20.321 20.267 20.4375C20.3409 20.554 20.4418 20.6548 20.5696 20.7401C20.6974 20.8224 20.8452 20.8949 21.0128 20.9574C21.1804 21.017 21.3594 21.0682 21.5497 21.1108L22.3338 21.2983C22.7145 21.3835 23.0639 21.4972 23.3821 21.6392C23.7003 21.7812 23.9759 21.956 24.2088 22.1634C24.4418 22.3707 24.6222 22.6151 24.75 22.8963C24.8807 23.1776 24.9474 23.5 24.9503 23.8636C24.9474 24.3977 24.8111 24.8608 24.5412 25.2528C24.2741 25.642 23.8878 25.9446 23.3821 26.1605C22.8793 26.3736 22.2727 26.4801 21.5625 26.4801C20.858 26.4801 20.2443 26.3722 19.7216 26.1562C19.2017 25.9403 18.7955 25.6207 18.5028 25.1974C18.2131 24.7713 18.0611 24.2443 18.0469 23.6165H19.8324C19.8523 23.9091 19.9361 24.1534 20.0838 24.3494C20.2344 24.5426 20.4347 24.6889 20.6847 24.7884C20.9375 24.8849 21.223 24.9332 21.5412 24.9332C21.8537 24.9332 22.125 24.8878 22.3551 24.7969C22.5881 24.706 22.7685 24.5795 22.8963 24.4176C23.0241 24.2557 23.0881 24.0696 23.0881 23.8594C23.0881 23.6634 23.0298 23.4986 22.9134 23.3651C22.7997 23.2315 22.6321 23.1179 22.4105 23.0241C22.1918 22.9304 21.9233 22.8452 21.6051 22.7685L20.6548 22.5298C19.919 22.3509 19.3381 22.071 18.9119 21.6903C18.4858 21.3097 18.2741 20.7969 18.277 20.152C18.2741 19.6236 18.4148 19.1619 18.6989 18.767C18.9858 18.3722 19.3793 18.0639 19.8793 17.8423C20.3793 17.6207 20.9474 17.5099 21.5838 17.5099C22.2315 17.5099 22.7969 17.6207 23.2798 17.8423C23.7656 18.0639 24.1435 18.3722 24.4134 18.767C24.6832 19.1619 24.8224 19.6193 24.831 20.1392H23.0625Z" fill="white"/>
<path d="M33.8917 20.6847H32.0252C31.9911 20.4432 31.9215 20.2287 31.8164 20.0412C31.7113 19.8509 31.5764 19.6889 31.4116 19.5554C31.2468 19.4219 31.0565 19.3196 30.8406 19.2486C30.6275 19.1776 30.396 19.142 30.146 19.142C29.6942 19.142 29.3008 19.2543 28.9656 19.4787C28.6303 19.7003 28.3704 20.0241 28.1857 20.4503C28.0011 20.8736 27.9087 21.3878 27.9087 21.9929C27.9087 22.6151 28.0011 23.1378 28.1857 23.5611C28.3732 23.9844 28.6346 24.304 28.9698 24.5199C29.305 24.7358 29.6928 24.8438 30.1332 24.8438C30.3803 24.8438 30.609 24.8111 30.8192 24.7457C31.0323 24.6804 31.2212 24.5852 31.386 24.4602C31.5508 24.3324 31.6871 24.1776 31.7951 23.9957C31.9059 23.8139 31.9826 23.6065 32.0252 23.3736L33.8917 23.3821C33.8434 23.7827 33.7227 24.169 33.5295 24.5412C33.3391 24.9105 33.082 25.2415 32.7582 25.5341C32.4371 25.8239 32.0536 26.054 31.6076 26.2244C31.1644 26.392 30.663 26.4759 30.1033 26.4759C29.3249 26.4759 28.6289 26.2997 28.0153 25.9474C27.4045 25.5952 26.9215 25.0852 26.5664 24.4176C26.2141 23.75 26.038 22.9418 26.038 21.9929C26.038 21.0412 26.217 20.2315 26.5749 19.5639C26.9329 18.8963 27.4187 18.3878 28.0323 18.0384C28.646 17.6861 29.3363 17.5099 30.1033 17.5099C30.609 17.5099 31.0778 17.581 31.5096 17.723C31.9442 17.8651 32.3292 18.0724 32.6644 18.3452C32.9996 18.6151 33.2724 18.946 33.4826 19.3381C33.6957 19.7301 33.832 20.179 33.8917 20.6847Z" fill="white"/>
<path d="M37.06 17.6293V21.9929V26.3565H35.2148V17.6293H37.06Z" fill="white"/>
<path d="M38.2457 19.1506V17.6293H45.4134V19.1506H42.7415V26.3565H40.9176V19.1506H38.2457Z" fill="white"/>
<path d="M49.2422 18.3555H55.2422H61.2422V26.3555H49.2422V18.3555Z" fill="white"/>
<path d="M67.2422 18.3555H73.2422H79.2422V26.3555H67.2422V18.3555Z" fill="white"/>
<path d="M85.2422 18.3555H91.2422H97.2422V26.3555H85.2422V18.3555Z" fill="white"/>
<path d="M103.242 18.3555H109.242H115.242V26.3555H103.242V18.3555Z" fill="white"/>
<path d="M121.242 18.3555H127.242H133.242V26.3555H121.242V18.3555Z" fill="white"/>
</svg>
