<svg width="49" height="48" viewBox="0 0 49 48" fill="none" xmlns="http://www.w3.org/2000/svg">
<path d="M22.6422 0.0582153C35.8608 -0.856855 47.3184 9.12434 48.2334 22.3506C49.1485 35.5691 39.1673 47.0267 25.9411 47.9418C12.7225 48.8569 1.26494 38.8757 0.349867 25.6494C-0.365272 15.2453 5.71726 5.56402 15.4139 1.7038C17.7208 0.781044 20.1585 0.227388 22.6422 0.0582153ZM23.0959 1.05787C19.3741 1.25011 15.76 2.34205 12.5611 4.24908C9.86199 5.85623 7.50895 8.00164 5.65574 10.5392C-1.834 20.8357 0.442144 35.2538 10.7386 42.7359C18.0899 48.0802 27.8866 48.6108 35.7685 44.0893C38.5598 42.4821 40.9821 40.3213 42.8891 37.7299C50.4327 27.4719 48.2257 13.0384 37.9677 5.49481C33.6769 2.34205 28.4172 0.773355 23.0959 1.05787Z" fill="#07BCB6"/>
<path d="M19.0973 11.2621C22.4654 9.87792 26.3871 9.91637 29.7398 11.339C36.8373 14.3302 40.1747 22.512 37.1834 29.6096C36.6143 30.963 35.8377 32.2164 34.8765 33.3237C34.715 33.5237 34.5304 33.7159 34.3382 33.8851C31.9852 36.3073 28.8016 37.7376 25.4336 37.8991C24.6031 37.9375 23.7649 37.8991 22.9421 37.7914C23.142 37.753 23.3497 37.776 23.5573 37.7607C26.9331 37.6146 30.132 36.192 32.4927 33.7774C31.3546 33.762 30.2242 33.7697 29.0862 33.7697C28.3249 33.7467 27.5713 33.7697 26.81 33.7543C26.8177 32.3241 26.8023 30.8938 26.8177 29.4712C26.9023 29.2943 27.0561 29.1482 27.1407 28.9714C27.1484 28.5792 27.1407 28.1793 27.1407 27.7872H26.1795C26.1795 27.1489 26.1795 26.503 26.1795 25.8647C26.1872 25.4341 26.0949 24.9727 25.8181 24.6344C25.6258 24.4114 25.3644 24.2653 25.0798 24.2192C25.0798 23.4963 25.0798 22.7658 25.0798 22.043C24.7723 22.043 24.4647 22.043 24.1648 22.043C24.0879 21.7969 24.011 21.5431 23.9264 21.2971C23.8726 21.1433 23.8956 20.9741 23.8879 20.8049C23.8879 19.2978 23.8879 17.7829 23.8879 16.268C24.1725 16.245 24.4877 16.2219 24.7415 16.3757C24.7261 16.1527 24.7569 15.922 24.7261 15.699C24.5031 15.4452 24.1494 15.3837 23.8418 15.3068C23.8649 14.5994 23.788 13.8919 23.7572 13.1922C23.7342 12.8384 23.7265 12.4847 23.688 12.131C23.6342 12.9384 23.5496 13.7458 23.4958 14.5532C23.4958 16.7371 23.4958 18.921 23.4958 21.1048C23.4343 21.4124 23.3035 21.7123 23.2113 22.0122C22.8575 22.0199 22.5038 22.0122 22.1501 22.0199C22.1501 22.6658 22.1501 23.3195 22.1501 23.9654C21.6887 24.2038 21.358 24.6344 21.2427 25.1419C21.1504 25.488 21.1812 25.8494 21.1735 26.2108C21.1735 26.7337 21.1735 27.2643 21.1735 27.7949H19.9431C19.9431 28.187 19.9355 28.5792 19.9508 28.9714C20.0431 29.1559 20.22 29.2866 20.2815 29.4789C20.2815 30.9092 20.2815 32.3394 20.2815 33.7697C18.2437 33.7697 16.206 33.7697 14.1682 33.7697C11.9228 31.3859 10.5848 28.2947 10.4003 25.0189C10.3695 24.5652 10.3849 24.1192 10.3849 23.6655C11.9459 23.6655 13.4992 23.6655 15.0602 23.6655C15.4062 23.6655 15.6908 23.4041 15.7061 23.058C15.7138 22.6505 15.7061 22.2352 15.7061 21.8277C15.6984 21.4816 15.4139 21.1971 15.0602 21.2048H10.6848C10.7463 20.9203 10.8232 20.6358 10.9001 20.3589C13.0916 20.3513 15.2832 20.3513 17.4748 20.3589C17.8208 20.3589 18.0976 20.0898 18.1207 19.7515C18.1284 19.3439 18.1284 18.9364 18.1207 18.5211C18.113 18.1751 17.8285 17.8906 17.4748 17.8906C15.6062 17.8906 13.7453 17.8906 11.8767 17.8906C12.0151 17.5984 12.1766 17.3215 12.3458 17.0447H19.6817C19.8432 17.0447 20.0277 17.0601 20.1738 16.9832C20.3968 16.8755 20.5352 16.6448 20.5276 16.3988C20.5276 15.9989 20.5276 15.6067 20.5276 15.2069C20.5199 14.9608 20.3738 14.7455 20.1508 14.6455C20.0047 14.5763 19.8355 14.5917 19.674 14.5917C17.8516 14.5917 16.0291 14.5917 14.2143 14.5917C14.4604 14.3226 14.7142 14.0765 14.9833 13.8304C15.0294 13.7997 15.0679 13.7381 15.1294 13.7381H22.0117C22.1962 13.7381 22.3961 13.7612 22.573 13.6766C22.8037 13.569 22.9575 13.3383 22.9498 13.0768C22.9498 12.677 22.9498 12.2771 22.9498 11.8772C22.9344 11.5312 22.6576 11.2621 22.3116 11.2621C21.2427 11.2621 20.1661 11.2698 19.0973 11.2621Z" fill="#07BCB6"/>
<path d="M23.096 1.05787C35.807 0.373489 46.6649 10.1163 47.3492 22.8273C47.6414 28.164 46.0651 33.4391 42.8892 37.7376C40.9822 40.329 38.5599 42.4898 35.7686 44.0969C29.3323 47.7957 21.5119 48.1571 14.7604 45.0812C11.1616 43.4279 8.03964 40.8827 5.69429 37.6915C-0.226752 29.6173 -0.242131 18.6365 5.65585 10.5469C7.50906 8.00164 9.8544 5.86391 12.5612 4.25677C15.7601 2.34973 19.3742 1.25011 23.096 1.05787ZM23.3575 2.64194C23.1422 2.72653 22.996 2.94184 23.0114 3.17253C23.0268 3.47243 23.2729 3.70312 23.5728 3.68774C23.8727 3.67236 24.1034 3.42629 24.088 3.12639C24.0957 2.76498 23.6881 2.51122 23.3575 2.64194ZM22.1271 2.72653C21.8503 2.82649 21.6965 3.13408 21.7965 3.41091C21.8964 3.68774 22.204 3.84153 22.4808 3.74156C22.7346 3.64929 22.8807 3.38784 22.8269 3.12639C22.7654 2.83418 22.4808 2.64963 22.1886 2.70346C22.1733 2.71115 22.1425 2.71884 22.1271 2.72653ZM24.6647 3.67236C24.4878 3.67236 24.3033 3.65698 24.1264 3.62622C24.2879 4.33367 24.2879 5.07188 24.3571 5.79471C24.3879 6.30991 24.4571 6.85588 24.2495 7.34033C24.1264 7.64792 23.8112 7.84785 23.4882 7.8863C23.1422 7.93243 22.7423 7.93243 22.4578 7.70174C22.1733 7.47105 22.104 7.07888 22.0502 6.73285C21.9503 5.74857 21.9118 4.76429 21.9272 3.77232C21.7888 3.80308 21.6504 3.84922 21.5119 3.87998C21.2966 3.91843 21.0813 3.87229 20.866 3.85691C20.9275 4.40288 20.989 4.94884 21.0275 5.5025C21.089 6.0946 21.0275 6.6944 21.1582 7.27881C21.2428 7.65561 21.412 8.02471 21.7196 8.27078C22.081 8.56299 22.5577 8.63988 23.0037 8.63219C23.5574 8.63988 24.1495 8.50916 24.5647 8.11699C24.98 7.72481 25.1492 7.14809 25.1415 6.60212C25.0953 5.57939 25.0569 4.55667 25.0646 3.52625C24.9262 3.58777 24.7954 3.63391 24.6647 3.67236ZM28.771 4.10298C28.3557 5.65629 27.8559 7.18654 27.2792 8.68602C27.8636 8.83212 28.4326 9.03975 29.0017 9.23199C29.4708 9.39347 29.9783 9.47806 30.4781 9.38578C31.0471 9.28582 31.5623 8.96285 31.9007 8.49378C32.1775 8.07854 32.3621 7.60178 32.4313 7.10964C32.5159 6.59443 32.439 6.03309 32.1083 5.61015C31.7084 5.07957 31.0625 4.81812 30.4397 4.66432C29.8706 4.51053 29.317 4.32598 28.771 4.10298ZM18.2361 4.28753C17.9901 4.44901 17.744 4.6105 17.4979 4.77198C17.3518 4.85657 17.1903 4.91808 17.0212 4.94115C16.7828 5.75626 16.506 6.55598 16.183 7.34033C15.9292 6.77129 15.7139 6.18688 15.4756 5.61015C15.3833 5.67167 15.291 5.73319 15.191 5.79471C14.9834 5.94081 14.722 5.97157 14.4913 6.05615C14.845 6.7636 15.2064 7.47874 15.514 8.20926C15.86 8.95516 16.1599 9.72413 16.4675 10.4931C16.7751 10.3085 17.1058 10.1624 17.4518 10.0548C17.1596 9.47806 16.8597 8.90133 16.6059 8.30154C17.3749 8.65526 18.1208 9.06282 18.8975 9.40116C19.2819 9.1474 19.7356 9.02437 20.1663 8.90133C19.082 8.42457 17.9978 7.92474 16.9212 7.42492C17.3057 6.34836 17.744 5.31026 18.2361 4.28753ZM11.5231 8.01702C11.0924 8.23233 10.7156 8.58606 10.5465 9.03975C10.3927 9.43192 10.4388 9.87023 10.6618 10.2316C10.8694 10.5623 11.2001 10.8468 11.6076 10.8853C12.169 10.9775 12.6765 10.6546 13.2225 10.6084C13.5839 10.57 13.8453 10.9314 13.8607 11.2544C13.8684 11.6696 13.4532 12.0003 13.0533 11.9926C12.8534 12.008 12.6765 11.908 12.5073 11.8234C12.3997 11.908 12.292 12.0003 12.1921 12.0849C12.3689 12.3232 12.4997 12.5847 12.5919 12.8615C12.7534 12.8692 12.9072 12.8538 13.0687 12.8308C13.4839 12.7692 13.8377 12.5155 14.1299 12.231C14.4528 11.9388 14.6374 11.5235 14.6528 11.0929C14.6604 10.6084 14.4451 10.1471 14.076 9.83178C13.7915 9.58571 13.3917 9.53957 13.0302 9.60878C12.615 9.6703 12.2305 9.90099 11.7999 9.88561C11.5538 9.8933 11.3693 9.68568 11.2924 9.47037C11.1847 9.12433 11.4923 8.74754 11.8383 8.73216C12.0306 8.73985 12.1998 8.83981 12.3612 8.94747C12.4689 8.86288 12.5765 8.77061 12.6765 8.68602C12.5227 8.43995 12.4228 8.17081 12.3689 7.8863C12.069 7.87092 11.7845 7.8863 11.5231 8.01702ZM32.4543 10.5931C32.7389 10.7622 33.0234 10.9391 33.2387 11.2005C33.7308 10.8545 34.2537 10.5392 34.7843 10.2547C35.1303 10.5239 35.4687 10.793 35.7993 11.0775C35.6148 11.6619 35.4687 12.254 35.2226 12.8154C35.584 13.0076 35.8839 13.3075 36.1531 13.6074C36.3222 12.6462 36.6298 11.7157 36.8913 10.7776C37.122 9.98557 37.3527 9.19354 37.5834 8.40919C37.4757 8.32461 37.368 8.24002 37.2681 8.15543C35.6686 8.97823 34.0692 9.80102 32.4543 10.5931ZM19.0974 11.2621C20.1663 11.2698 21.2428 11.2621 22.3117 11.2621C22.6577 11.2621 22.9345 11.5312 22.9499 11.8772C22.9576 12.2771 22.9499 12.677 22.9499 13.0768C22.9576 13.3306 22.8038 13.569 22.5731 13.6766C22.3963 13.7535 22.204 13.7304 22.0118 13.7381H15.1295C15.068 13.7381 15.0296 13.792 14.9834 13.8304C14.7143 14.0688 14.4605 14.3225 14.2144 14.5917C16.0369 14.5917 17.8594 14.5917 19.6741 14.5917C19.8356 14.5917 20.0048 14.5763 20.1509 14.6455C20.3739 14.7455 20.52 14.9608 20.5277 15.2069C20.5277 15.6067 20.5277 15.9989 20.5277 16.3988C20.5354 16.6448 20.3969 16.8755 20.1739 16.9832C20.0201 17.0678 19.8433 17.0447 19.6818 17.0447H12.3382C12.1767 17.3215 12.0152 17.606 11.8691 17.8906C13.7377 17.8906 15.5986 17.8906 17.4672 17.8906C17.8132 17.8906 18.1054 18.1674 18.1131 18.5211C18.1208 18.9287 18.1208 19.3439 18.1131 19.7515C18.0977 20.0975 17.8132 20.3589 17.4672 20.3589C15.2756 20.3589 13.0841 20.3589 10.8925 20.3589C10.8156 20.6358 10.7387 20.9203 10.6772 21.2048H15.0372C15.3833 21.2048 15.6755 21.4816 15.6832 21.8277C15.6832 22.2352 15.6909 22.6505 15.6832 23.058C15.6601 23.404 15.3756 23.6655 15.0372 23.6655C13.4762 23.6732 11.9229 23.6655 10.3619 23.6655C10.3619 24.1192 10.3465 24.5652 10.3773 25.0189C10.5619 28.287 11.8999 31.3859 14.1452 33.7697C16.183 33.7697 18.2208 33.7697 20.2585 33.7697C20.2585 32.3394 20.2585 30.9092 20.2585 29.4789C20.197 29.2866 20.0201 29.1482 19.9279 28.9714C19.9125 28.5792 19.9279 28.187 19.9202 27.7948H21.1505C21.1505 27.2643 21.1505 26.7414 21.1505 26.2108C21.1505 25.8571 21.1275 25.4879 21.2197 25.1419C21.3351 24.6344 21.658 24.2115 22.1194 23.9654C22.1271 23.3195 22.1194 22.6658 22.1194 22.0199C22.4732 22.0122 22.8269 22.0199 23.1806 22.0122C23.2729 21.7046 23.3959 21.4124 23.4574 21.1048C23.4574 18.921 23.4574 16.7371 23.4574 14.5532C23.5113 13.7458 23.5958 12.9384 23.6497 12.131C23.6881 12.4847 23.6958 12.8384 23.7189 13.1922C23.7573 13.8996 23.8265 14.5994 23.8035 15.3068C24.111 15.3837 24.4648 15.4529 24.6878 15.699C24.7108 15.922 24.6878 16.145 24.7032 16.3757C24.4494 16.2142 24.1341 16.2373 23.8496 16.268C23.8573 17.7829 23.8496 19.2901 23.8496 20.8049C23.8496 20.9664 23.8265 21.1356 23.8881 21.2971C23.9726 21.5431 24.0418 21.7969 24.1264 22.043C24.434 22.043 24.7416 22.043 25.0415 22.043C25.0415 22.7658 25.0415 23.4963 25.0415 24.2192C25.3337 24.2653 25.5952 24.4114 25.7874 24.6344C26.0719 24.9727 26.1565 25.4341 26.1488 25.8647C26.1488 26.503 26.1488 27.1489 26.1488 27.7872H27.11C27.11 28.1793 27.1177 28.5792 27.11 28.9714C27.0254 29.1482 26.8793 29.2943 26.7871 29.4712C26.7794 30.9015 26.7871 32.3318 26.7794 33.7543C27.5406 33.7697 28.2942 33.7467 29.0555 33.7697C30.1936 33.7697 31.324 33.762 32.462 33.7774C30.1013 36.192 26.9101 37.6222 23.5343 37.7684C23.3267 37.7837 23.1191 37.7607 22.9192 37.7991C23.7419 37.9068 24.5801 37.9375 25.4106 37.9068C28.7787 37.7453 31.9622 36.3073 34.3152 33.8851C34.5075 33.7082 34.692 33.5237 34.8535 33.3237C39.8903 27.495 39.252 18.6749 33.4156 13.6382C32.3082 12.6846 31.0625 11.908 29.7168 11.339C26.3795 9.92406 22.4655 9.88561 19.0974 11.2621ZM7.63209 11.6619C7.59364 11.8003 7.55519 11.9388 7.50137 12.0772C7.40909 12.231 7.26299 12.3463 7.15533 12.4847C7.37064 12.5693 7.57057 12.677 7.7705 12.7923C8.30109 13.1076 8.82399 13.4382 9.34689 13.7612C9.70061 13.9842 10.0697 14.2457 10.2696 14.6224C10.4234 14.9147 10.3696 15.2684 10.2081 15.5452C10.039 15.8374 9.81596 16.145 9.46992 16.2296C9.09313 16.3219 8.71633 16.1296 8.39337 15.9528C7.56288 15.4606 6.76316 14.9223 5.99419 14.3379C5.94036 14.484 5.88653 14.6301 5.82502 14.7686C5.73274 14.9608 5.55588 15.0915 5.44053 15.2684C5.94805 15.5452 6.44019 15.8374 6.93233 16.1373C7.43216 16.4372 7.88585 16.8371 8.43182 17.0524C8.82399 17.2139 9.27768 17.2677 9.67754 17.0908C10.1543 16.8909 10.4926 16.468 10.7464 16.0297C11.0155 15.576 11.1463 15.0146 10.9925 14.4917C10.8387 13.9688 10.4311 13.5613 9.97744 13.2768C9.1854 12.7692 8.39337 12.2386 7.63209 11.6619ZM36.8836 14.5071C37.1143 14.7839 37.3065 15.0915 37.4603 15.4145C38.014 15.0223 38.5599 14.6224 39.1367 14.2533C38.8983 15.0761 38.5984 15.8836 38.2908 16.6756C38.6215 17.037 38.8214 17.4907 39.029 17.929C39.1136 17.5676 39.1674 17.2062 39.2905 16.8525C39.4827 16.2373 39.698 15.6375 39.8979 15.03C40.2824 15.3453 40.813 15.5452 41.3128 15.4068C41.7588 15.2684 42.1664 14.8839 42.1818 14.3918C42.2125 14.038 42.0741 13.692 41.8973 13.3921C41.7512 13.1307 41.5435 12.9153 41.3897 12.6616C41.2206 12.4078 41.0822 12.1387 40.9361 11.8695C39.6288 12.8231 38.2754 13.6997 36.8836 14.5071ZM6.25564 12.1464C6.09416 12.1925 5.96343 12.3232 5.9096 12.477C5.81733 12.7462 5.94805 13.0461 6.2095 13.1614C6.52478 13.3075 6.93233 13.0845 6.96309 12.7308C7.02461 12.354 6.61705 12.0156 6.25564 12.1464ZM5.5405 13.2229C5.28674 13.3306 5.15602 13.6151 5.2406 13.8765C5.32519 14.1611 5.62509 14.3225 5.9096 14.238C6.19412 14.1534 6.35561 13.8535 6.27102 13.569C6.18643 13.2844 5.88653 13.123 5.60202 13.2075C5.57895 13.2075 5.56357 13.2152 5.5405 13.2229ZM6.50171 24.7959C6.08647 24.8266 5.67122 24.842 5.26367 24.942C4.85612 25.0419 4.44088 25.2496 4.2025 25.611C3.91798 26.0339 3.89491 26.5645 3.94105 27.0566C3.98719 27.5718 4.17943 28.1101 4.57929 28.4562C4.97915 28.8022 5.50974 28.9252 6.02495 28.9022C7.06305 28.8099 8.09347 28.6945 9.13927 28.6715C9.07775 28.5023 8.97009 28.3485 8.97009 28.164C8.97009 28.0178 8.98547 27.8717 9.00085 27.7256C8.5164 27.8717 8.01657 27.9179 7.51674 27.9871C7.11688 28.0409 6.72471 28.0871 6.32484 28.1332C5.96343 28.1716 5.57895 28.1716 5.2406 28.0255C4.9484 27.9025 4.76384 27.6103 4.70233 27.3027C4.64081 26.9721 4.61774 26.5953 4.80998 26.3031C4.99453 26.0262 5.33288 25.9109 5.64816 25.8417C6.15567 25.7494 6.67088 25.7033 7.1784 25.6417C7.69361 25.6033 8.20882 25.5495 8.72402 25.5495C8.68557 25.4111 8.63175 25.2726 8.5933 25.1342C8.53947 24.9189 8.58561 24.7036 8.57792 24.4883C7.89354 24.5959 7.20147 24.7267 6.50171 24.7959ZM39.129 25.1727C38.9675 25.2188 38.8445 25.3418 38.7829 25.4956C38.6599 25.8032 38.8752 26.18 39.1982 26.2262C39.5058 26.2877 39.8441 26.0185 39.8287 25.7033C39.8595 25.3418 39.4673 25.0496 39.129 25.1727ZM39.8518 25.1957C39.8672 25.3418 39.8826 25.4803 39.8903 25.6264C39.8903 25.8494 39.8287 26.057 39.7826 26.2723C41.3974 26.2954 43.0123 26.4107 44.6194 26.6106C44.604 26.2492 44.6348 25.8878 44.7117 25.5341C43.6121 25.5418 42.5124 25.4495 41.4128 25.3649C40.8899 25.3265 40.3747 25.2496 39.8518 25.1957ZM9.10851 25.388C8.83168 25.4879 8.68557 25.7955 8.78554 26.0801C8.8855 26.3569 9.19309 26.503 9.47761 26.403C9.72368 26.3107 9.86978 26.057 9.82364 25.7955C9.76982 25.5033 9.4853 25.3111 9.19309 25.3726C9.16233 25.3726 9.13927 25.3803 9.10851 25.388ZM9.28537 26.626C9.00085 26.7183 8.83937 27.0182 8.93165 27.3104C9.02392 27.5949 9.32382 27.7564 9.61602 27.6641C9.88516 27.5795 10.0466 27.3027 9.97744 27.0259C9.91592 26.7337 9.62371 26.5568 9.33151 26.6183C9.31613 26.6106 9.30075 26.6183 9.28537 26.626ZM39.6134 28.164C39.375 28.4562 39.2289 28.8099 39.1828 29.1867C39.129 29.5942 39.2136 30.0325 39.4904 30.3478C39.7672 30.6631 40.1901 30.84 40.6054 30.8476C40.9668 30.8476 41.3128 30.6554 41.5589 30.4016C41.8434 30.1325 42.028 29.7634 42.3663 29.5481C42.6355 29.3635 43.0046 29.5173 43.1891 29.7557C43.4121 30.0556 43.3045 30.4939 43.0507 30.7323C42.8815 30.9092 42.6278 30.9707 42.3971 30.9861C42.3586 31.1168 42.3125 31.2475 42.2741 31.3782C42.5432 31.4936 42.82 31.6012 43.0276 31.8089C43.3352 31.6166 43.6197 31.3629 43.7582 31.0245C43.9581 30.5862 44.0581 30.0787 43.9273 29.6019C43.7966 29.1482 43.466 28.7714 43.02 28.5946C42.7354 28.4715 42.3971 28.41 42.0972 28.5254C41.7204 28.6484 41.4359 28.956 41.2129 29.2713C41.0514 29.4712 40.8822 29.6865 40.6515 29.8095C40.4747 29.9095 40.2517 29.848 40.0902 29.748C39.7826 29.5481 39.7826 29.0329 40.0748 28.8176C40.2363 28.6945 40.4439 28.6869 40.6362 28.6792C40.6746 28.5484 40.713 28.4177 40.7515 28.287C40.49 28.164 40.2517 27.9948 40.0517 27.7948C39.8903 27.9025 39.7442 28.0178 39.6134 28.164ZM6.46326 32.1164C6.09416 32.3164 5.70198 32.4855 5.30212 32.6163C5.50974 32.87 5.67123 33.1622 5.77888 33.4698C5.94036 33.3468 6.10953 33.2314 6.2864 33.1315C7.00923 32.7009 7.73206 32.2779 8.47026 31.8858C8.03195 33.2468 7.60133 34.6156 7.1015 35.9613C7.16302 36.0843 7.23223 36.1997 7.30143 36.3227C8.10116 35.8844 8.87782 35.4153 9.67754 34.9847C10.3389 34.6463 11.0002 34.3157 11.6769 34.0235C11.5846 33.9081 11.4615 33.8005 11.377 33.6774C11.3231 33.5313 11.277 33.3852 11.2385 33.2391C10.3619 33.7928 9.46223 34.3003 8.55485 34.8001C8.97778 33.4468 9.42378 32.1011 9.87747 30.7631C9.81596 30.6323 9.73906 30.5093 9.66985 30.3863C8.62406 31.0014 7.56288 31.5935 6.46326 32.1164ZM37.0143 33.8082C37.6603 34.1696 38.3139 34.5079 38.9367 34.9001C39.6903 35.3384 40.4208 35.8075 41.1437 36.2996C41.359 35.8767 41.605 35.4768 41.8511 35.077C42.0972 34.6694 42.3279 34.2619 42.6047 33.8774C42.4509 33.8236 42.274 33.8159 42.1433 33.7082C42.0434 33.6159 41.9511 33.516 41.8588 33.4083C41.6819 33.9927 41.3667 34.5233 41.0514 35.0385C40.6362 34.8001 40.2286 34.5541 39.8134 34.308C40.0825 33.8389 40.3901 33.3929 40.713 32.97C40.5439 32.9085 40.3593 32.87 40.2209 32.7547C40.1286 32.6778 40.044 32.6009 39.9595 32.5163C39.7211 32.9931 39.4827 33.4775 39.2059 33.9312C38.8598 33.7236 38.5061 33.5313 38.1831 33.3007C38.483 32.8085 38.8368 32.3471 39.152 31.8704C39.0367 31.8242 38.9214 31.7935 38.8137 31.7396C38.6753 31.6551 38.5446 31.5474 38.4292 31.4321C38.0063 32.2549 37.5295 33.0469 37.0143 33.8082ZM19.9894 33.9312C19.874 33.962 19.8587 34.1388 19.9894 34.1619C20.1201 34.185 20.1586 34.0466 20.1047 33.962L19.9894 33.9312ZM24.7493 34.2234C24.7647 34.6233 24.7724 35.0308 24.7493 35.4384C24.9492 35.4307 25.1492 35.4538 25.3414 35.423C25.5183 35.3769 25.6259 35.2 25.5798 35.0231C25.5721 35.0001 25.5721 34.9847 25.5567 34.9693C25.5029 34.8847 25.4183 34.8309 25.3183 34.8001C25.4183 34.754 25.549 34.6771 25.549 34.5464C25.5644 34.431 25.5029 34.3157 25.3875 34.2772C25.1953 34.1927 24.9646 34.2926 24.7493 34.2234ZM19.8587 34.2465C19.8817 34.6387 19.8817 35.0385 19.8587 35.4307H20.1586C20.1355 35.0308 20.1355 34.631 20.1586 34.2388C20.0586 34.2388 19.9586 34.2465 19.8587 34.2465ZM20.5277 34.2772C20.3585 34.3849 20.3124 34.6079 20.42 34.7771C20.4277 34.7924 20.4431 34.8078 20.4585 34.8232C20.5661 34.9386 20.7353 34.9616 20.8506 35.077C20.9045 35.1539 20.8814 35.2538 20.8045 35.3077C20.7737 35.3307 20.7353 35.3384 20.7045 35.3384C20.5661 35.3615 20.4815 35.2384 20.4123 35.1385C20.3893 35.2231 20.3739 35.3077 20.3508 35.3922C20.5277 35.4768 20.7353 35.4768 20.9198 35.3922C21.0967 35.2923 21.1582 35.0616 21.0583 34.8847L21.0506 34.877C20.9275 34.7002 20.6584 34.7002 20.5661 34.5002C20.6046 34.431 20.643 34.3311 20.743 34.3311C20.8583 34.3157 20.9198 34.4157 20.9737 34.5002C21.0044 34.431 21.0275 34.3618 21.0506 34.3003C20.8891 34.1927 20.6891 34.185 20.5277 34.2772ZM21.189 34.2388C21.189 34.2772 21.189 34.3618 21.189 34.4003C21.2966 34.3926 21.4043 34.3849 21.5043 34.3772C21.5043 34.7309 21.5196 35.0847 21.4966 35.4307H21.7888C21.7657 35.077 21.7734 34.7232 21.7734 34.3772C21.881 34.3772 21.981 34.3849 22.081 34.4003V34.2311C21.7888 34.2542 21.4889 34.2542 21.189 34.2388ZM22.6269 34.2388C22.4655 34.6387 22.304 35.0462 22.1348 35.4384H22.3194C22.3578 35.323 22.3963 35.2077 22.4347 35.0847H22.8269C22.8653 35.2 22.9038 35.323 22.9422 35.4384H23.2575C23.0729 35.0462 22.9268 34.6387 22.7731 34.2388H22.6269ZM23.4344 34.2465C23.4497 34.6463 23.4421 35.0462 23.4113 35.4461H23.5805C23.5651 35.1692 23.5728 34.9001 23.5651 34.6233C23.8265 34.8847 24.0726 35.1616 24.311 35.4461H24.4571C24.4571 35.0462 24.4648 34.6463 24.4878 34.2542H24.3264C24.3264 34.5233 24.3494 34.7924 24.3417 35.0616C24.088 34.8001 23.8496 34.5233 23.6035 34.2542L23.4344 34.2465ZM25.8182 34.2465C25.8412 34.531 25.8182 34.8155 25.8258 35.1C25.8412 35.2461 25.9412 35.3692 26.0796 35.423C26.2642 35.4845 26.4641 35.4768 26.641 35.3999C26.7947 35.323 26.8563 35.1385 26.864 34.977C26.864 34.7309 26.8716 34.4849 26.887 34.2465H26.7025C26.7025 34.5541 26.7563 34.8847 26.6563 35.1846C26.5717 35.4384 26.1334 35.3692 26.1104 35.1077C26.0796 34.8232 26.0796 34.531 26.1104 34.2465C26.0181 34.2465 25.9181 34.2465 25.8182 34.2465ZM27.1562 34.2465C27.1715 34.6463 27.1715 35.0385 27.1562 35.4384H27.8252V35.2846C27.6944 35.3 27.5637 35.3 27.433 35.3C27.433 34.9462 27.4253 34.5925 27.4484 34.2465C27.3484 34.2465 27.2484 34.2465 27.1562 34.2465ZM13.3686 34.6617C13.0764 34.7309 12.8995 35.0231 12.9687 35.3077C13.0225 35.523 13.1994 35.6844 13.4224 35.7152C13.7146 35.7537 13.9838 35.546 14.0222 35.2461C14.0607 34.9539 13.853 34.6848 13.5531 34.6463C13.4993 34.6463 13.4301 34.6463 13.3686 34.6617ZM33.5617 37.3454C33.6847 37.43 33.8231 37.4915 33.9308 37.5992C34.0153 37.7299 34.0922 37.8606 34.1538 38.0067C34.4613 37.6299 34.792 37.2685 35.1457 36.9379C35.5687 37.3685 35.9762 37.8145 36.3838 38.2528C36.899 38.7911 37.3834 39.3678 37.8679 39.9291C38.0986 39.6523 38.3677 39.4062 38.6522 39.1986C38.26 38.7988 37.8448 38.422 37.468 38.0144C36.9297 37.4377 36.3838 36.861 35.8532 36.2689C36.2069 35.9382 36.5837 35.6383 36.9836 35.3615C36.8451 35.2846 36.7144 35.2 36.5914 35.1C36.5068 34.977 36.4299 34.854 36.3607 34.7232C35.4687 35.6383 34.5306 36.5072 33.5617 37.3454ZM9.25461 38.5373C9.53913 38.768 9.79289 39.0295 10.0082 39.314C10.3004 38.9987 10.5926 38.6911 10.8925 38.3835C11.7461 37.553 12.5996 36.7149 13.507 35.9382C13.3917 35.8459 13.2686 35.7613 13.161 35.6691C12.9918 35.5307 12.8841 35.3307 12.7534 35.1616C11.6461 36.3458 10.4773 37.4685 9.25461 38.5373ZM21.9349 36.215C21.9887 36.2612 22.0425 36.3073 22.0964 36.3458C22.1194 36.2458 22.1425 36.092 22.2732 36.0843C22.4424 36.1151 22.4501 36.3227 22.4193 36.4611C22.3424 36.7226 22.1425 36.9071 21.9503 37.084V37.1609C22.204 37.1609 22.4578 37.1609 22.7192 37.1609C22.7192 37.084 22.7192 37.0071 22.7192 36.9379C22.5577 36.9379 22.4039 36.9532 22.2425 36.9532C22.4347 36.761 22.7115 36.5841 22.7192 36.2919C22.6962 35.8998 22.0733 35.8844 21.9349 36.215ZM23.1883 36.0074C22.9884 36.0766 22.9192 36.2996 22.9115 36.4919C22.9038 36.6841 22.9115 36.8994 23.0345 37.0532C23.1345 37.1839 23.3267 37.1916 23.4728 37.1532C23.642 37.0993 23.7112 36.9071 23.7343 36.7456C23.7573 36.538 23.765 36.2996 23.642 36.1228C23.5266 35.992 23.3498 35.9459 23.1883 36.0074ZM23.8881 36.192L23.9803 36.2996C24.0495 36.2689 24.1111 36.2304 24.1803 36.1997C24.1803 36.5149 24.1803 36.8302 24.1572 37.1532H24.434C24.4417 36.7533 24.4186 36.3611 24.4417 35.969C24.2572 36.0305 24.0803 36.1381 23.8881 36.192ZM24.8493 36.192L24.9492 36.2996C25.0107 36.2612 25.0723 36.2304 25.1415 36.1997C25.1415 36.5149 25.1492 36.8379 25.1261 37.1532H25.4106C25.3798 36.7533 25.4106 36.3611 25.4029 35.9613C25.2184 36.0382 25.0338 36.1305 24.8493 36.192ZM14.1606 36.6918C13.8761 38.422 13.5762 40.1521 13.2609 41.8823C13.4839 41.9669 13.6839 42.0899 13.8607 42.2437C15.2756 41.1749 16.729 40.1598 18.2054 39.1832C18.0439 39.1217 17.8901 39.0679 17.7286 39.0064C17.5671 38.9449 17.4595 38.8065 17.3441 38.6988C17.1288 38.8834 16.9058 39.0602 16.6828 39.2371C15.9369 39.8138 15.191 40.3982 14.4221 40.9442C14.6374 39.7369 14.8373 38.5296 15.1449 37.3454C14.968 37.2608 14.7758 37.1993 14.622 37.0763C14.4451 36.9456 14.3067 36.8148 14.1606 36.6918ZM31.7392 37.1224C31.447 37.1993 31.2778 37.4992 31.3547 37.7837C31.4316 38.0759 31.7315 38.2451 32.016 38.1682C32.2544 38.1067 32.4159 37.8914 32.4159 37.6453C32.4159 37.3454 32.1698 37.0993 31.8699 37.0993C31.8315 37.0993 31.7853 37.107 31.7392 37.1224ZM32.2698 38.1067C32.0929 38.2374 31.8853 38.2989 31.6854 38.3835C32.5928 39.7215 33.4309 41.1134 34.1845 42.5436C34.469 42.3206 34.7843 42.1361 35.115 41.99C34.669 41.3517 34.2537 40.6904 33.8616 40.0214C33.4156 39.3063 33.008 38.5681 32.6158 37.8222C32.4928 37.9145 32.3851 38.0144 32.2698 38.1067ZM28.3327 40.0522C27.979 40.5751 28.0866 41.3133 28.4942 41.767C28.8248 42.0976 29.3093 42.1899 29.763 42.2053C30.0552 42.2284 30.3704 42.2284 30.6088 42.4129C30.7857 42.5975 30.8472 42.8743 30.7626 43.1204C30.6165 43.5433 30.0629 43.6971 29.6784 43.5048C29.5169 43.4433 29.4092 43.2895 29.2862 43.1819C29.1555 43.2126 29.0248 43.2588 28.9017 43.3049C28.9632 43.5894 29.0247 43.8816 28.994 44.1815C29.2785 44.2892 29.5784 44.3738 29.886 44.3507C30.2397 44.3123 30.5781 44.1969 30.8857 44.0201C31.2086 43.8278 31.4547 43.5279 31.5777 43.1742C31.7238 42.7205 31.6623 42.2284 31.4239 41.8208C31.2394 41.5286 30.901 41.3594 30.5704 41.2902C30.1398 41.1979 29.6707 41.2902 29.2708 41.0826C29.0863 40.998 29.0171 40.7827 28.994 40.5905C28.9863 40.1906 29.4708 39.8907 29.8245 40.0676C29.9783 40.1521 30.0782 40.2982 30.1936 40.429C30.3166 40.3828 30.4473 40.3444 30.5781 40.2982C30.5396 40.0137 30.5165 39.7215 30.5858 39.4447C30.3166 39.314 30.0244 39.2678 29.7245 39.2909C29.1785 39.3524 28.6403 39.5985 28.3327 40.0522ZM17.9209 44.1123C18.8359 44.32 19.7433 44.5737 20.6507 44.8428C20.6507 44.6891 20.6123 44.5199 20.6815 44.3738C20.743 44.243 20.8122 44.12 20.8968 44.0047C20.2816 43.997 19.6895 43.8355 19.1051 43.6817C19.2281 43.2203 19.3511 42.7589 19.4742 42.2976C19.9894 42.4437 20.5046 42.5821 20.9967 42.7974C21.0121 42.6667 21.0121 42.5283 21.0352 42.3975C21.0736 42.236 21.1582 42.0899 21.2274 41.9362C20.6968 41.8516 20.1816 41.7439 19.6587 41.6055C19.7587 41.221 19.8587 40.8288 19.9817 40.4444C20.5354 40.6058 21.0813 40.8058 21.6273 40.9903C21.6273 40.8596 21.6427 40.7212 21.6657 40.5905C21.7119 40.4444 21.7734 40.3059 21.8503 40.1675C21.412 40.0753 20.9737 39.983 20.543 39.8676C20.0817 39.7523 19.6357 39.5985 19.1743 39.4601C18.8359 41.0288 18.4207 42.5821 17.9209 44.1123ZM23.1729 40.3213C23.319 41.9285 23.3728 43.5433 23.3344 45.1581C23.6958 45.1043 24.0572 45.0889 24.4186 45.1197C24.3648 44.443 24.3033 43.7663 24.2802 43.0896C24.8723 43.7125 25.3952 44.3892 25.9258 45.0582C26.4026 44.9659 26.8947 45.0197 27.3715 45.0735C27.1715 44.8659 26.9562 44.6814 26.7563 44.4814C26.2642 43.9508 25.8105 43.3895 25.3337 42.8358C25.6874 42.7205 25.995 42.4898 26.2103 42.1899C26.4256 41.89 26.4641 41.4902 26.3718 41.1364C26.2872 40.8288 26.0642 40.5751 25.772 40.4444C25.3645 40.2521 24.9031 40.2675 24.4648 40.3136C24.0418 40.3521 23.6035 40.3521 23.1729 40.3213Z" fill="white"/>
<path d="M29.5323 5.14108C29.9936 5.24874 30.4704 5.36408 30.878 5.61784C31.1932 5.79471 31.3932 6.12536 31.4162 6.48678C31.447 6.93278 31.3009 7.37109 31.124 7.77095C30.9164 8.24002 30.4935 8.64757 29.9629 8.7014C29.4477 8.73985 28.9479 8.5553 28.4865 8.35536C28.7095 7.52488 28.994 6.71747 29.2554 5.90236C29.3477 5.6486 29.44 5.39484 29.5323 5.14108Z" fill="white"/>
<path d="M35.4687 9.88561C35.7378 9.73951 36.0147 9.5934 36.2915 9.45499C36.2069 9.75489 36.1223 10.0471 36.0454 10.347C35.8455 10.2009 35.6532 10.0471 35.4687 9.88561Z" fill="white"/>
<path d="M39.7749 13.8458C40.144 13.5997 40.5362 13.369 40.9207 13.1383C41.0975 13.3767 41.2898 13.6228 41.3359 13.9227C41.382 14.3687 40.8284 14.6917 40.4362 14.5225C40.1363 14.3994 39.9287 14.1226 39.7749 13.8458Z" fill="white"/>
<path d="M25.0415 34.3464C25.1338 34.3464 25.2568 34.3541 25.2799 34.4695C25.326 34.5848 25.2645 34.7155 25.1492 34.754C25.1107 34.7694 25.0723 34.7694 25.0261 34.7617C25.0261 34.6233 25.0261 34.4849 25.0415 34.3464Z" fill="white"/>
<path d="M22.6346 34.5925C22.6885 34.7232 22.7346 34.854 22.7807 34.9847H22.4808C22.5347 34.854 22.5808 34.7232 22.6346 34.5925Z" fill="white"/>
<path d="M25.0261 34.8693C25.0953 34.877 25.1722 34.8617 25.2261 34.9078C25.3183 35.0078 25.3337 35.1616 25.2491 35.2692C25.203 35.3384 25.103 35.323 25.0338 35.3384C25.0261 35.1846 25.0261 35.0308 25.0261 34.8693Z" fill="white"/>
<path d="M23.1806 36.415C23.1883 36.2996 23.1883 36.1458 23.2959 36.0766C23.4113 36.0612 23.442 36.1997 23.4497 36.2842C23.4805 36.5226 23.4728 36.7687 23.419 37.0071C23.4036 37.0686 23.3344 37.107 23.2652 37.0917C23.2498 37.084 23.2344 37.084 23.2267 37.0686C23.1575 36.861 23.1806 36.638 23.1806 36.415Z" fill="white"/>
<path d="M24.2418 40.9826C24.5801 40.9596 24.9723 40.8904 25.2568 41.121C25.5336 41.3902 25.4798 41.8977 25.1722 42.1207C24.9108 42.3129 24.5724 42.336 24.2572 42.336C24.2418 41.89 24.2418 41.4363 24.2418 40.9826Z" fill="white"/>
<path d="M23.3575 2.64194C23.6804 2.51122 24.088 2.77267 24.088 3.12639C24.0957 3.42629 23.8649 3.67237 23.565 3.68006C23.2651 3.68775 23.0191 3.45706 23.0114 3.15716C23.0037 2.93416 23.1422 2.71884 23.3575 2.64194Z" fill="#141616"/>
<path d="M22.1271 2.72653C22.4193 2.66501 22.7038 2.84957 22.7653 3.13409C22.8268 3.41861 22.6423 3.71081 22.3578 3.77233C22.0656 3.83385 21.781 3.6493 21.7195 3.36478C21.658 3.08026 21.8349 2.78805 22.1271 2.72653Z" fill="#141616"/>
<path d="M24.657 3.67237C24.7954 3.63392 24.9261 3.58778 25.0568 3.53395C25.0415 4.55668 25.0799 5.58709 25.1337 6.60982C25.1414 7.16348 24.9723 7.74789 24.557 8.12468C24.1418 8.50917 23.5497 8.64758 22.996 8.63989C22.55 8.64758 22.0656 8.563 21.7118 8.27848C21.4042 8.03241 21.2351 7.6633 21.1505 7.28651C21.0198 6.7021 21.0813 6.1023 21.0198 5.5102C20.9813 4.96423 20.9198 4.41826 20.8583 3.86461C21.0736 3.87999 21.2889 3.93382 21.5042 3.88768C21.6426 3.86461 21.781 3.81847 21.9194 3.78002C21.9041 4.7643 21.9425 5.75627 22.0348 6.73286C22.0809 7.07889 22.1578 7.46337 22.4424 7.70175C22.7269 7.94013 23.1267 7.94013 23.4728 7.88631C23.7957 7.84017 24.1033 7.64793 24.234 7.34034C24.4417 6.8482 24.3725 6.30992 24.3417 5.79471C24.2725 5.07189 24.2725 4.33368 24.111 3.62623C24.2956 3.66468 24.4801 3.67237 24.657 3.67237Z" fill="#141616"/>
<path d="M28.7786 4.10299C29.3246 4.32599 29.8783 4.51823 30.4473 4.67202C31.0702 4.83351 31.7161 5.09496 32.116 5.61785C32.4466 6.04078 32.5235 6.60213 32.4389 7.11734C32.3697 7.60948 32.1852 8.08624 31.9083 8.50148C31.5623 8.97055 31.0548 9.28582 30.4857 9.39348C29.9936 9.48576 29.4784 9.40117 29.0093 9.23969C28.4403 9.04744 27.8713 8.83982 27.2868 8.69372C27.8636 7.19424 28.3634 5.66399 28.7786 4.10299ZM29.5399 5.14109C29.4399 5.38716 29.3554 5.64092 29.2708 5.89468C29.0093 6.70979 28.7248 7.5172 28.5018 8.34769C28.9709 8.54762 29.463 8.73217 29.9782 8.69372C30.5011 8.63989 30.9241 8.23234 31.1394 7.76327C31.3162 7.36341 31.4623 6.9251 31.4316 6.4791C31.4085 6.11768 31.2086 5.78703 30.8933 5.61016C30.4704 5.36409 30.0013 5.25644 29.5399 5.14109Z" fill="#141616"/>
<path d="M18.2438 4.28754C17.744 5.30258 17.3133 6.34837 16.9365 7.41724C18.0131 7.91706 19.0973 8.41689 20.1816 8.89365C19.7433 9.02438 19.2973 9.13972 18.9128 9.39348C18.1361 9.05513 17.3902 8.64758 16.6213 8.29386C16.875 8.89365 17.1749 9.46269 17.4671 10.0471C17.1211 10.1548 16.7904 10.3009 16.4829 10.4854C16.1753 9.71644 15.8754 8.94748 15.5293 8.20158C15.2141 7.47106 14.8603 6.76361 14.5066 6.04847C14.745 5.96389 14.9987 5.93313 15.2064 5.78703C15.2986 5.72551 15.3909 5.66399 15.4909 5.60247C15.7216 6.1792 15.9369 6.76361 16.1983 7.33265C16.5213 6.5483 16.7981 5.74858 17.0365 4.93347C17.2057 4.9104 17.3672 4.84889 17.5133 4.7643C17.7516 4.6182 17.9977 4.44902 18.2438 4.28754Z" fill="#141616"/>
<path d="M11.5231 8.01702C11.7768 7.8863 12.069 7.87093 12.3458 7.86324C12.392 8.14775 12.4996 8.41689 12.6457 8.66296C12.5381 8.75524 12.4381 8.83982 12.3304 8.92441C12.1689 8.82444 11.9998 8.72448 11.8075 8.7091C11.4538 8.72448 11.1539 9.10127 11.2616 9.44731C11.3385 9.66262 11.523 9.87024 11.7691 9.86255C12.1997 9.87793 12.5842 9.64724 12.9994 9.58572C13.3532 9.5242 13.7607 9.57034 14.0375 9.80872C14.4066 10.124 14.622 10.5854 14.6143 11.0698C14.6066 11.5081 14.422 11.9157 14.0991 12.2156C13.8145 12.5078 13.4531 12.7616 13.0379 12.8154C12.8841 12.8385 12.7226 12.8461 12.5611 12.8461C12.4765 12.5693 12.3381 12.3002 12.1613 12.0695C12.2689 11.9849 12.3766 11.8926 12.4765 11.808C12.6457 11.8926 12.8303 11.9926 13.0225 11.9772C13.4224 11.9849 13.8376 11.6619 13.8299 11.239C13.8145 10.916 13.5531 10.5546 13.1917 10.5931C12.6457 10.6392 12.1382 10.9699 11.5768 10.8699C11.1693 10.8314 10.8386 10.5469 10.631 10.2163C10.408 9.86255 10.3619 9.41655 10.5157 9.02438C10.7156 8.58606 11.0924 8.23233 11.5231 8.01702Z" fill="#141616"/>
<path d="M32.4543 10.5931C34.0692 9.79333 35.6686 8.97824 37.268 8.14775C37.3757 8.23234 37.4833 8.31693 37.5833 8.40151C37.3526 9.19355 37.1219 9.98558 36.8912 10.7699C36.6298 11.7081 36.3222 12.6385 36.153 13.5997C35.8839 13.2921 35.584 12.9999 35.2226 12.8077C35.4686 12.2463 35.6071 11.6466 35.7993 11.0698C35.4686 10.7853 35.1303 10.5162 34.7843 10.247C34.2537 10.5316 33.7308 10.8468 33.2386 11.1929C33.0233 10.9391 32.7389 10.7622 32.4543 10.5931ZM35.4687 9.88561C35.6532 10.0471 35.8455 10.2009 36.0454 10.347C36.1223 10.0471 36.2069 9.75489 36.2915 9.45499C36.0147 9.5934 35.7378 9.73182 35.4687 9.88561Z" fill="#141616"/>
<path d="M7.63209 11.6619C8.39337 12.2386 9.18536 12.7616 9.97739 13.2921C10.4311 13.569 10.8386 13.9842 10.9924 14.5071C11.1462 15.03 11.0155 15.5914 10.7464 16.045C10.4926 16.4757 10.1543 16.8986 9.6775 17.1062C9.27763 17.2754 8.82394 17.2216 8.43177 17.0678C7.87812 16.8525 7.43211 16.4526 6.93229 16.1527C6.44015 15.8528 5.94801 15.5606 5.44049 15.2838C5.56352 15.1069 5.7327 14.9762 5.82497 14.7839C5.89418 14.6455 5.94032 14.4994 5.99414 14.3533C6.76311 14.9377 7.56284 15.476 8.39332 15.9681C8.71629 16.145 9.08539 16.3372 9.46988 16.245C9.81591 16.1604 10.0389 15.8528 10.2081 15.5606C10.3696 15.2838 10.4157 14.93 10.2696 14.6378C10.0697 14.261 9.70057 13.9996 9.34684 13.7766C8.82394 13.4459 8.30105 13.1153 7.77046 12.8077C7.57053 12.6923 7.3706 12.5847 7.15529 12.5001C7.27063 12.3617 7.40905 12.2463 7.50901 12.0926C7.55515 11.9388 7.59364 11.8003 7.63209 11.6619Z" fill="#141616"/>
<path d="M36.8835 14.5148C38.2831 13.7074 39.6365 12.8308 40.9437 11.8772C41.0975 12.1387 41.2282 12.4155 41.3974 12.6693C41.5512 12.923 41.7588 13.1383 41.9049 13.3998C42.0818 13.6997 42.2202 14.0457 42.1894 14.3995C42.174 14.8916 41.7665 15.2761 41.3205 15.4145C40.8207 15.5606 40.2901 15.3607 39.9056 15.0377C39.7057 15.6452 39.4903 16.2527 39.2981 16.8601C39.1828 17.2139 39.1212 17.5753 39.0367 17.9367C38.829 17.4984 38.6291 17.0524 38.2984 16.6833C38.606 15.8836 38.9059 15.0838 39.1443 14.261C38.5753 14.6301 38.0216 15.03 37.468 15.4222C37.3142 15.0915 37.1142 14.7916 36.8835 14.5148ZM39.7749 13.8458C39.9287 14.1226 40.1363 14.3994 40.4362 14.5225C40.8284 14.6917 41.382 14.3687 41.3359 13.9227C41.2898 13.6228 41.0975 13.3767 40.9207 13.1383C40.5362 13.369 40.1517 13.5997 39.7749 13.8458Z" fill="#141616"/>
<path d="M6.25564 12.1464C6.61705 12.0156 7.02456 12.354 6.95535 12.7308C6.92459 13.0845 6.51704 13.2998 6.20177 13.1614C5.94032 13.0461 5.80959 12.7539 5.90187 12.477C5.97108 12.3232 6.09416 12.2002 6.25564 12.1464Z" fill="#141616"/>
<path d="M5.54045 13.2306C5.81728 13.1076 6.13256 13.2383 6.25559 13.5075C6.37863 13.7843 6.2479 14.0996 5.97876 14.2226C5.70194 14.3456 5.38666 14.2149 5.26363 13.9458C5.25594 13.9227 5.24825 13.8996 5.24056 13.8842C5.16366 13.6151 5.29438 13.3383 5.54045 13.2306Z" fill="#141616"/>
<path d="M6.50171 24.7959C7.20147 24.7267 7.89349 24.6036 8.58556 24.496C8.59325 24.7113 8.54711 24.9266 8.60094 25.1419C8.63939 25.2803 8.68553 25.4188 8.73167 25.5572C8.21646 25.5572 7.70125 25.611 7.18604 25.6494C6.67852 25.7033 6.16332 25.7494 5.6558 25.8494C5.34821 25.9186 5.00218 26.0339 4.81763 26.3108C4.62538 26.603 4.64076 26.9798 4.70228 27.3104C4.75611 27.618 4.94835 27.9102 5.24056 28.0332C5.5789 28.1793 5.96338 28.1793 6.3248 28.1409C6.72466 28.0948 7.11684 28.0486 7.5167 27.9948C8.01653 27.9256 8.51636 27.8794 9.0008 27.7333C8.99312 27.8794 8.97774 28.0255 8.97005 28.1717C8.97774 28.3562 9.0777 28.51 9.13922 28.6792C8.10111 28.7022 7.06301 28.8176 6.0249 28.9099C5.51738 28.9329 4.97142 28.8099 4.57925 28.4639C4.18707 28.1178 3.98714 27.5795 3.941 27.0643C3.88717 26.5722 3.91793 26.0416 4.20245 25.6187C4.44083 25.2573 4.85607 25.0496 5.26363 24.9497C5.67118 24.8497 6.09416 24.8266 6.50171 24.7959Z" fill="#141616"/>
<path d="M39.129 25.1727C39.4596 25.0496 39.8595 25.3418 39.8287 25.7033C39.8441 26.0185 39.5135 26.2877 39.1982 26.2262C38.8675 26.1877 38.6522 25.8032 38.7829 25.4956C38.8445 25.3418 38.9675 25.2265 39.129 25.1727Z" fill="#141616"/>
<path d="M39.8595 25.2034C40.3747 25.2496 40.8899 25.3265 41.4128 25.3726C42.5124 25.4572 43.612 25.5418 44.7116 25.5418C44.6424 25.8955 44.6117 26.2569 44.6194 26.6183C43.0122 26.4184 41.3974 26.3108 39.7826 26.28C39.8287 26.0647 39.8979 25.8571 39.8902 25.6341C39.8902 25.488 39.8671 25.3419 39.8595 25.2034Z" fill="#141616"/>
<path d="M9.10851 25.388C9.39302 25.3034 9.69288 25.4649 9.77746 25.7494C9.86205 26.0339 9.70057 26.3338 9.41605 26.4184C9.3776 26.4261 9.34684 26.4338 9.30839 26.4415C9.0085 26.4492 8.76243 26.2108 8.75474 25.9109C8.74705 25.6725 8.8932 25.4649 9.10851 25.388Z" fill="#141616"/>
<path d="M9.28537 26.626C9.56989 26.5337 9.87743 26.6952 9.96201 26.9798C10.0543 27.2643 9.89281 27.5719 9.60829 27.6564C9.32377 27.741 9.01619 27.5872 8.9316 27.3027C8.92391 27.2797 8.91622 27.2566 8.91622 27.2258C8.87008 26.9644 9.02392 26.7029 9.28537 26.626Z" fill="#141616"/>
<path d="M39.6134 28.164C39.7442 28.0255 39.8902 27.9025 40.0517 27.8102C40.2516 28.0179 40.49 28.1793 40.7515 28.3024C40.713 28.4331 40.6746 28.5638 40.6361 28.6946C40.4439 28.7022 40.2362 28.7099 40.0748 28.833C39.7826 29.0483 39.7749 29.5635 40.0901 29.7634C40.2516 29.8557 40.4746 29.9249 40.6515 29.8249C40.8822 29.7019 41.0514 29.4866 41.2128 29.2867C41.4435 28.9714 41.7204 28.6638 42.0971 28.5408C42.397 28.4254 42.7354 28.4869 43.0199 28.61C43.4582 28.7868 43.7966 29.1559 43.9273 29.6173C44.058 30.0941 43.958 30.6016 43.7581 31.0399C43.6197 31.3782 43.3275 31.632 43.0276 31.8242C42.8123 31.6166 42.5355 31.509 42.274 31.3936C42.3125 31.2629 42.3509 31.1322 42.397 31.0015C42.6354 30.9861 42.8815 30.9246 43.0507 30.7477C43.3044 30.5093 43.4198 30.0633 43.1891 29.7711C43.0045 29.5327 42.6354 29.3789 42.3663 29.5635C42.0356 29.7788 41.8434 30.1479 41.5589 30.417C41.3051 30.6708 40.9668 30.863 40.6054 30.863C40.1901 30.8553 39.7595 30.6862 39.4903 30.3632C39.2212 30.0402 39.1366 29.6019 39.1828 29.2021C39.2289 28.8099 39.375 28.4562 39.6134 28.164Z" fill="#141616"/>
<path d="M6.45553 32.1165C7.55515 31.5936 8.62401 31.0015 9.66981 30.3709C9.73901 30.4939 9.81591 30.617 9.87743 30.7477C9.42374 32.0857 8.97774 33.4314 8.5548 34.7848C9.46218 34.2849 10.3619 33.7774 11.2385 33.2238C11.2693 33.3699 11.3154 33.5237 11.3769 33.6621C11.4615 33.7851 11.5845 33.8928 11.6768 34.0081C11.0001 34.3003 10.3311 34.631 9.6775 34.9693C8.87777 35.3999 8.09342 35.869 7.30139 36.3073C7.23218 36.192 7.16297 36.0689 7.10146 35.9459C7.60129 34.6002 8.03191 33.2391 8.47022 31.8704C7.73201 32.2626 7.00149 32.6855 6.28635 33.1161C6.10949 33.2161 5.94032 33.3314 5.77884 33.4545C5.67118 33.1469 5.5097 32.8624 5.30207 32.6009C5.69425 32.4856 6.08642 32.3164 6.45553 32.1165Z" fill="#141616"/>
<path d="M37.0066 33.8005C37.5295 33.0392 37.9986 32.2472 38.4292 31.4321C38.5446 31.5474 38.6753 31.6551 38.8137 31.7396C38.9214 31.7935 39.0444 31.8242 39.152 31.8704C38.8291 32.3471 38.483 32.8085 38.1831 33.3007C38.5061 33.5313 38.8598 33.7236 39.2059 33.9312C39.4827 33.4698 39.7211 32.9931 39.9595 32.5163C40.044 32.5932 40.1286 32.6778 40.2209 32.7547C40.3593 32.87 40.5439 32.9085 40.713 32.97C40.3824 33.4006 40.0825 33.8466 39.8056 34.3157C40.2209 34.5541 40.6284 34.8001 41.0437 35.0462C41.3589 34.5233 41.6742 34.0004 41.8511 33.416C41.9357 33.5237 42.0356 33.6236 42.1356 33.7159C42.2663 33.8236 42.4432 33.8312 42.597 33.8851C42.3278 34.2696 42.0895 34.6771 41.8434 35.0847C41.5973 35.4845 41.3512 35.8844 41.1359 36.3073C40.4208 35.8152 39.6826 35.3538 38.929 34.9078C38.3061 34.5079 37.6525 34.1619 37.0066 33.8005Z" fill="#141616"/>
<path d="M19.9894 33.9312L20.097 33.9697C20.1508 34.0542 20.1047 34.1927 19.9817 34.1696C19.8586 34.1465 19.8817 33.962 19.9894 33.9312Z" fill="#141616"/>
<path d="M24.7493 34.2234C24.9646 34.2926 25.1953 34.1927 25.4029 34.2772C25.5105 34.3157 25.5797 34.431 25.5644 34.5464C25.5644 34.6771 25.4336 34.7463 25.3337 34.8001C25.4259 34.8309 25.5105 34.8847 25.572 34.9693C25.6489 35.1308 25.572 35.3307 25.4106 35.4076C25.3952 35.4153 25.3721 35.423 25.3567 35.4307C25.1645 35.4615 24.9569 35.4384 24.7646 35.4461C24.7723 35.0308 24.7724 34.631 24.7493 34.2234ZM25.0415 34.3464C25.0261 34.4849 25.0261 34.6233 25.0261 34.7617C25.1492 34.7848 25.2645 34.7079 25.2875 34.5848C25.2952 34.5464 25.2952 34.5003 25.2798 34.4618C25.2568 34.3618 25.1338 34.3541 25.0415 34.3464ZM25.0261 34.8693C25.0261 35.0231 25.0261 35.1769 25.0338 35.3384C25.1107 35.3307 25.203 35.3384 25.2491 35.2692C25.3337 35.1616 25.326 35.0078 25.2261 34.9078C25.1722 34.8617 25.0953 34.877 25.0261 34.8693Z" fill="#141616"/>
<path d="M19.8586 34.2542C19.9586 34.2542 20.0586 34.2465 20.1585 34.2465C20.1354 34.6464 20.1354 35.0462 20.1585 35.4384H19.8586C19.8817 35.0462 19.8817 34.6464 19.8586 34.2542Z" fill="#141616"/>
<path d="M20.5277 34.2772C20.6968 34.185 20.8967 34.1927 21.0582 34.2926C21.0351 34.3618 21.0121 34.431 20.9813 34.4926C20.9275 34.4157 20.8583 34.3157 20.7506 34.3234C20.6507 34.3157 20.6122 34.4234 20.5738 34.4926C20.666 34.6925 20.9352 34.7002 21.0582 34.8694C21.1659 35.0462 21.112 35.2692 20.9429 35.3769L20.9352 35.3846C20.7583 35.4692 20.5507 35.4692 20.3661 35.3846C20.3892 35.3 20.4046 35.2154 20.4277 35.1308C20.4892 35.2308 20.5814 35.3538 20.7199 35.3307C20.8121 35.3384 20.889 35.2615 20.8967 35.1693C20.8967 35.1308 20.889 35.1 20.866 35.0693C20.7583 34.9539 20.5814 34.9309 20.4738 34.8155C20.3354 34.6694 20.3508 34.4387 20.4969 34.308C20.4892 34.308 20.5123 34.2926 20.5277 34.2772Z" fill="#141616"/>
<path d="M21.1966 34.2388C21.4965 34.2542 21.7887 34.2542 22.0886 34.2388V34.408C21.9887 34.4003 21.881 34.3926 21.781 34.3849C21.781 34.7386 21.7733 35.0847 21.7964 35.4384H21.5042C21.5273 35.0847 21.5119 34.7309 21.5119 34.3849C21.4042 34.3849 21.2966 34.3926 21.1966 34.408C21.1889 34.3618 21.1966 34.2772 21.1966 34.2388Z" fill="#141616"/>
<path d="M22.6269 34.2388H22.7731C22.9268 34.6387 23.0729 35.0462 23.2575 35.4384H22.9422C22.9038 35.323 22.8653 35.2 22.8269 35.0847H22.4347C22.3963 35.2 22.3578 35.3153 22.3194 35.4384L22.1425 35.4384C22.3116 35.0385 22.4732 34.6387 22.6269 34.2388ZM22.6346 34.5848C22.5808 34.7156 22.5269 34.8463 22.4808 34.977H22.7807C22.7346 34.854 22.6884 34.7232 22.6346 34.5848Z" fill="#141616"/>
<path d="M23.4266 34.2465H23.5958C23.8419 34.5156 24.0802 34.7925 24.334 35.0539C24.3417 34.7848 24.3186 34.5156 24.3186 34.2465H24.4801C24.457 34.6464 24.4417 35.0385 24.4494 35.4384H24.3032C24.0649 35.1539 23.8188 34.877 23.5574 34.6156C23.5574 34.8924 23.5497 35.1616 23.5727 35.4384H23.4036C23.4343 35.0385 23.442 34.6387 23.4266 34.2465Z" fill="#141616"/>
<path d="M25.8181 34.2388C25.9181 34.2465 26.018 34.2465 26.118 34.2388C26.0873 34.5233 26.0796 34.8155 26.118 35.1C26.1411 35.3615 26.5794 35.4307 26.664 35.1769C26.7639 34.877 26.7101 34.5541 26.7101 34.2388H26.8947C26.8793 34.4849 26.8716 34.7309 26.8716 34.9693C26.8639 35.1308 26.8101 35.3154 26.6486 35.3923C26.4717 35.4691 26.2718 35.4768 26.0873 35.4153C25.9488 35.3692 25.8489 35.2385 25.8335 35.0924C25.8181 34.8078 25.8412 34.5233 25.8181 34.2388Z" fill="#141616"/>
<path d="M27.1562 34.2465C27.2561 34.2465 27.3484 34.2465 27.4484 34.2465C27.4253 34.6002 27.4407 34.9539 27.433 35.3C27.5637 35.3 27.6944 35.2923 27.8252 35.2846V35.4384H27.1562C27.1715 35.0385 27.1715 34.6463 27.1562 34.2465Z" fill="#141616"/>
<path d="M13.3686 34.6617C13.6608 34.5925 13.9453 34.7694 14.0145 35.0616C14.0837 35.3538 13.9068 35.6383 13.6146 35.7075C13.5531 35.7229 13.4839 35.7229 13.4224 35.7152C13.1302 35.6768 12.9148 35.4076 12.9533 35.1154C12.9917 34.8924 13.1533 34.7155 13.3686 34.6617Z" fill="#141616"/>
<path d="M33.5617 37.3454C34.5306 36.5072 35.4763 35.6383 36.3683 34.7233C36.4375 34.854 36.5144 34.9847 36.599 35.1C36.7221 35.2 36.8528 35.2846 36.9912 35.3615C36.5913 35.6383 36.2146 35.9382 35.8608 36.2689C36.3837 36.861 36.9297 37.4377 37.4757 38.0144C37.8601 38.422 38.2677 38.7988 38.6599 39.1986C38.3677 39.4063 38.1062 39.66 37.8755 39.9292C37.3834 39.3678 36.9066 38.7911 36.3914 38.2528C35.9839 37.8068 35.5686 37.3685 35.1534 36.9379C34.7996 37.2685 34.4613 37.6223 34.1614 38.0067C34.0999 37.8683 34.023 37.7299 33.9384 37.5992C33.8307 37.4915 33.6847 37.43 33.5617 37.3454Z" fill="#141616"/>
<path d="M9.25461 38.5373C10.4773 37.4761 11.6461 36.3458 12.7457 35.1616C12.8764 35.3307 12.9841 35.5307 13.1532 35.6691C13.2686 35.7614 13.3839 35.8459 13.4993 35.9382C12.5842 36.7072 11.7383 37.5454 10.8848 38.3835C10.5926 38.6911 10.2927 38.9987 10.0005 39.314C9.79284 39.0218 9.53913 38.7603 9.25461 38.5373Z" fill="#141616"/>
<path d="M21.9349 36.215C22.0656 35.8921 22.6885 35.9075 22.7192 36.2919C22.7038 36.5841 22.4347 36.761 22.2425 36.9532C22.4039 36.9532 22.5577 36.9456 22.7192 36.9379C22.7192 37.0148 22.7192 37.0917 22.7192 37.1609C22.4655 37.1609 22.204 37.1609 21.9503 37.1609V37.084C22.1425 36.9071 22.3501 36.7149 22.4193 36.4611C22.4578 36.3304 22.4424 36.1151 22.2732 36.0843C22.1425 36.092 22.1194 36.2458 22.0964 36.3458C22.0425 36.2996 21.9887 36.2612 21.9349 36.215Z" fill="#141616"/>
<path d="M23.1806 36.0151C23.342 35.9536 23.5189 35.9997 23.6266 36.1305C23.7496 36.3073 23.7496 36.5457 23.7188 36.7533C23.6958 36.9148 23.6266 37.107 23.4574 37.1609C23.3113 37.1993 23.119 37.1916 23.0191 37.0609C22.896 36.9071 22.8883 36.6841 22.896 36.4996C22.9037 36.315 22.9883 36.0843 23.1806 36.0151ZM23.1806 36.415C23.1806 36.6303 23.1575 36.861 23.2267 37.0686C23.2806 37.107 23.3574 37.0994 23.3959 37.0455C23.4036 37.0301 23.4113 37.0224 23.419 37.0071C23.4728 36.7687 23.4805 36.5303 23.4497 36.2842C23.442 36.192 23.4113 36.0536 23.2959 36.0766C23.1806 36.1458 23.1883 36.2996 23.1806 36.415Z" fill="#141616"/>
<path d="M23.888 36.1997C24.0802 36.1381 24.2572 36.0305 24.4417 35.969C24.4186 36.3611 24.434 36.761 24.4263 37.1532H24.1495C24.1648 36.8379 24.1725 36.5226 24.1725 36.1997C24.1033 36.2304 24.0418 36.2612 23.9726 36.2996L23.888 36.1997Z" fill="#141616"/>
<path d="M24.8415 36.2074C25.0338 36.1382 25.2106 36.0536 25.3952 35.9767C25.3952 36.3765 25.3721 36.7687 25.4029 37.1686H25.1184C25.1414 36.8533 25.1337 36.5303 25.1337 36.215C25.0722 36.2458 25.0107 36.2843 24.9415 36.315L24.8415 36.2074Z" fill="#141616"/>
<path d="M14.1606 36.6995C14.3067 36.8225 14.4528 36.9533 14.6066 37.0686C14.7604 37.1839 14.9526 37.2532 15.1295 37.3377C14.8219 38.5219 14.622 39.7369 14.4066 40.9365C15.1833 40.3905 15.9215 39.8061 16.6674 39.2294C16.8904 39.0525 17.1134 38.8757 17.3287 38.6911C17.4441 38.8065 17.5594 38.9449 17.7132 38.9987C17.867 39.0525 18.0362 39.1141 18.19 39.1756C16.7135 40.1598 15.2602 41.1672 13.8453 42.2361C13.6684 42.0746 13.4685 41.9515 13.2455 41.8746C13.5762 40.1598 13.8761 38.4297 14.1606 36.6995Z" fill="#141616"/>
<path d="M31.7315 37.1224C32.0237 37.0455 32.3236 37.2147 32.4005 37.4992C32.4774 37.7914 32.3082 38.0913 32.0237 38.1682C31.7315 38.2451 31.4316 38.0759 31.3547 37.7914C31.3393 37.7299 31.3316 37.6607 31.3393 37.5992C31.3547 37.3762 31.5162 37.1839 31.7315 37.1224Z" fill="#141616"/>
<path d="M32.2698 38.1067C32.3928 38.0221 32.5005 37.9221 32.6158 37.8222C33.008 38.5681 33.4156 39.3063 33.8616 40.0214C34.2537 40.6904 34.6767 41.344 35.115 41.99C34.7843 42.1361 34.469 42.3206 34.1845 42.5436C33.4232 41.1134 32.5928 39.7215 31.6854 38.3835C31.8776 38.2989 32.0929 38.2374 32.2698 38.1067Z" fill="#141616"/>
<path d="M28.3327 40.0522C28.6403 39.5985 29.1785 39.3447 29.7091 39.2909C30.0013 39.2678 30.3012 39.314 30.5703 39.4447C30.5011 39.7215 30.5242 40.0137 30.5626 40.2983C30.4319 40.3367 30.3089 40.3828 30.1782 40.429C30.0705 40.2983 29.9628 40.1522 29.8091 40.0676C29.4553 39.8907 28.9709 40.1906 28.9786 40.5905C29.0016 40.7827 29.0708 40.998 29.2554 41.0826C29.6553 41.2902 30.1243 41.198 30.555 41.2902C30.8856 41.3517 31.224 41.5209 31.4085 41.8208C31.6469 42.2284 31.7084 42.7205 31.5623 43.1742C31.4393 43.5279 31.1932 43.8278 30.8702 44.0201C30.5626 44.1969 30.2243 44.3123 29.8706 44.3507C29.563 44.3738 29.2631 44.2969 28.9786 44.1815C29.017 43.8893 28.9555 43.5971 28.8863 43.3049C29.017 43.2665 29.1401 43.2126 29.2708 43.1819C29.4015 43.2895 29.5015 43.4356 29.6629 43.5049C30.0397 43.6971 30.6011 43.5433 30.7472 43.1204C30.8318 42.8743 30.7703 42.6052 30.5934 42.4129C30.355 42.2284 30.0321 42.2284 29.7475 42.2053C29.2938 42.1899 28.8094 42.09 28.4787 41.767C28.0866 41.3133 27.979 40.5674 28.3327 40.0522Z" fill="#141616"/>
<path d="M17.9209 44.1123C18.4207 42.5821 18.8359 41.0288 19.1665 39.4601C19.6202 39.5985 20.0739 39.7523 20.5353 39.8676C20.9659 39.983 21.4042 40.0753 21.8426 40.1675C21.7657 40.2983 21.7041 40.4444 21.658 40.5905C21.6349 40.7212 21.6272 40.8519 21.6196 40.9903C21.0736 40.8058 20.5276 40.6058 19.974 40.4444C19.8509 40.8288 19.751 41.2133 19.651 41.6055C20.1662 41.7362 20.6891 41.8516 21.2197 41.9362C21.1505 42.09 21.0659 42.2284 21.0274 42.3975C21.0044 42.5283 21.0044 42.659 20.989 42.7974C20.4969 42.5821 19.9817 42.4437 19.4664 42.2976C19.3434 42.759 19.2204 43.2203 19.0973 43.6817C19.6818 43.8355 20.2739 44.0047 20.889 44.0047C20.8121 44.1277 20.7429 44.2507 20.6737 44.3738C20.6045 44.5199 20.6507 44.6814 20.643 44.8429C19.751 44.566 18.8436 44.32 17.9209 44.1123Z" fill="#141616"/>
<path d="M23.1729 40.3136C23.6112 40.3521 24.0418 40.3444 24.4801 40.306C24.9184 40.2598 25.3798 40.2444 25.7874 40.4367C26.0796 40.5674 26.3026 40.8212 26.3871 41.1287C26.4794 41.4825 26.441 41.8823 26.2257 42.1822C26.0104 42.4898 25.7028 42.7128 25.349 42.8282C25.8181 43.3741 26.2795 43.9432 26.7716 44.4737C26.9639 44.6814 27.1869 44.8659 27.3868 45.0658C26.91 45.012 26.4179 44.9505 25.9412 45.0505C25.4106 44.3738 24.8877 43.6971 24.2956 43.0819C24.3186 43.7586 24.3725 44.4353 24.434 45.112C24.0726 45.0812 23.7111 45.0966 23.3497 45.1504C23.3728 43.5356 23.319 41.9208 23.1729 40.3136ZM24.2418 40.9826C24.2418 41.4363 24.234 41.89 24.2571 42.3437C24.5724 42.336 24.9107 42.313 25.1722 42.1284C25.4798 41.9054 25.5336 41.3979 25.2568 41.1287C24.9799 40.8904 24.5801 40.9596 24.2418 40.9826Z" fill="#141616"/>
</svg>
