<svg width="162" height="32" viewBox="0 0 162 32" fill="none" xmlns="http://www.w3.org/2000/svg">
<path d="M6.51432 3.17734H8.74413V10.0264C8.74413 10.7954 8.56045 11.4683 8.19311 12.0451C7.8292 12.6218 7.31939 13.0716 6.66366 13.3943C6.00794 13.7136 5.24407 13.8732 4.37206 13.8732C3.49662 13.8732 2.73104 13.7136 2.07531 13.3943C1.41959 13.0716 0.909774 12.6218 0.545864 12.0451C0.181955 11.4683 0 10.7954 0 10.0264V3.17734H2.2298V9.83585C2.2298 10.2375 2.31735 10.5946 2.49244 10.907C2.67096 11.2194 2.92158 11.4649 3.24429 11.6434C3.567 11.8219 3.94292 11.9112 4.37206 11.9112C4.80463 11.9112 5.18056 11.8219 5.49984 11.6434C5.82255 11.4649 6.07145 11.2194 6.24654 10.907C6.42506 10.5946 6.51432 10.2375 6.51432 9.83585V3.17734ZM2.80142 2.09591C2.50617 2.09591 2.25212 1.99292 2.03927 1.78693C1.82641 1.57751 1.71999 1.33033 1.71999 1.04538C1.71999 0.753567 1.82641 0.506384 2.03927 0.30383C2.25212 0.101277 2.50617 0 2.80142 0C3.1001 0 3.35243 0.101277 3.55842 0.30383C3.76784 0.506384 3.87255 0.753567 3.87255 1.04538C3.87255 1.33033 3.76784 1.57751 3.55842 1.78693C3.35243 1.99292 3.1001 2.09591 2.80142 2.09591ZM5.95301 2.09591C5.65776 2.09591 5.40371 1.99292 5.19086 1.78693C4.97801 1.57751 4.87158 1.33033 4.87158 1.04538C4.87158 0.753567 4.97801 0.506384 5.19086 0.30383C5.40371 0.101277 5.65776 0 5.95301 0C6.25169 0 6.50402 0.101277 6.71001 0.30383C6.91943 0.506384 7.02414 0.753567 7.02414 1.04538C7.02414 1.33033 6.91943 1.57751 6.71001 1.78693C6.50402 1.99292 6.25169 2.09591 5.95301 2.09591Z" fill="white"/>
<path d="M16.3 6.21049C16.2588 5.79509 16.082 5.47237 15.7696 5.24236C15.4571 5.01234 15.0332 4.89733 14.4976 4.89733C14.1337 4.89733 13.8264 4.94883 13.5758 5.05182C13.3252 5.15138 13.1329 5.29042 12.999 5.46894C12.8686 5.64746 12.8033 5.85002 12.8033 6.0766C12.7965 6.26542 12.836 6.43021 12.9218 6.57097C13.0111 6.71173 13.1329 6.8336 13.2874 6.93659C13.4419 7.03615 13.6204 7.1237 13.823 7.19923C14.0255 7.27132 14.2418 7.33312 14.4718 7.38462L15.4194 7.6112C15.8794 7.71419 16.3017 7.85152 16.6862 8.02317C17.0707 8.19483 17.4037 8.40597 17.6852 8.65658C17.9667 8.9072 18.1847 9.20245 18.3392 9.54232C18.4972 9.8822 18.5778 10.2719 18.5813 10.7113C18.5778 11.3567 18.413 11.9163 18.0869 12.3901C17.7642 12.8604 17.2973 13.226 16.6862 13.487C16.0785 13.7444 15.3456 13.8732 14.4873 13.8732C13.6359 13.8732 12.8943 13.7427 12.2626 13.4818C11.6344 13.2209 11.1434 12.8347 10.7898 12.3231C10.4397 11.8082 10.256 11.1713 10.2388 10.4126H12.3965C12.4206 10.7662 12.5218 11.0615 12.7004 11.2984C12.8823 11.5318 13.1243 11.7086 13.4265 11.8288C13.732 11.9455 14.077 12.0039 14.4615 12.0039C14.8392 12.0039 15.167 11.9489 15.4451 11.8391C15.7266 11.7292 15.9446 11.5764 16.0991 11.3808C16.2536 11.1851 16.3309 10.9602 16.3309 10.7061C16.3309 10.4693 16.2605 10.2701 16.1197 10.1088C15.9824 9.94743 15.7799 9.81011 15.5121 9.69681C15.2477 9.58352 14.9233 9.48053 14.5388 9.38783L13.3904 9.09945C12.5012 8.88317 11.7992 8.54501 11.2842 8.08497C10.7692 7.62493 10.5135 7.00526 10.5169 6.22594C10.5135 5.58738 10.6834 5.0295 11.0267 4.5523C11.3735 4.0751 11.8489 3.70261 12.4532 3.43482C13.0574 3.16704 13.744 3.03315 14.513 3.03315C15.2958 3.03315 15.979 3.16704 16.5626 3.43482C17.1497 3.70261 17.6063 4.0751 17.9324 4.5523C18.2586 5.0295 18.4268 5.58223 18.4371 6.21049H16.3Z" fill="white"/>
<path d="M20.0811 13.7239V3.17734H22.3109V7.82749H22.45L26.2453 3.17734H28.9179L25.0042 7.89958L28.9643 13.7239H26.2968L23.4078 9.38783L22.3109 10.7267V13.7239H20.0811Z" fill="white"/>
<path d="M36.5935 3.17734H38.8233V10.0264C38.8233 10.7954 38.6396 11.4683 38.2723 12.0451C37.9084 12.6218 37.3986 13.0716 36.7428 13.3943C36.0871 13.7136 35.3232 13.8732 34.4512 13.8732C33.5758 13.8732 32.8102 13.7136 32.1545 13.3943C31.4988 13.0716 30.9889 12.6218 30.625 12.0451C30.2611 11.4683 30.0792 10.7954 30.0792 10.0264V3.17734H32.309V9.83585C32.309 10.2375 32.3965 10.5946 32.5716 10.907C32.7501 11.2194 33.0008 11.4649 33.3235 11.6434C33.6462 11.8219 34.0221 11.9112 34.4512 11.9112C34.8838 11.9112 35.2597 11.8219 35.579 11.6434C35.9017 11.4649 36.1506 11.2194 36.3257 10.907C36.5042 10.5946 36.5935 10.2375 36.5935 9.83585V3.17734ZM32.8806 2.09591C32.5853 2.09591 32.3313 1.99292 32.1184 1.78693C31.9056 1.57751 31.7992 1.33033 31.7992 1.04538C31.7992 0.753567 31.9056 0.506384 32.1184 0.30383C32.3313 0.101277 32.5853 0 32.8806 0C33.1793 0 33.4316 0.101277 33.6376 0.30383C33.847 0.506384 33.9517 0.753567 33.9517 1.04538C33.9517 1.33033 33.847 1.57751 33.6376 1.78693C33.4316 1.99292 33.1793 2.09591 32.8806 2.09591ZM36.0322 2.09591C35.7369 2.09591 35.4829 1.99292 35.27 1.78693C35.0572 1.57751 34.9508 1.33033 34.9508 1.04538C34.9508 0.753567 35.0572 0.506384 35.27 0.30383C35.4829 0.101277 35.7369 0 36.0322 0C36.3309 0 36.5832 0.101277 36.7892 0.30383C36.9986 0.506384 37.1033 0.753567 37.1033 1.04538C37.1033 1.33033 36.9986 1.57751 36.7892 1.78693C36.5832 1.99292 36.3309 2.09591 36.0322 2.09591Z" fill="white"/>
<path d="M44.3965 13.7239H40.6579V3.17734H44.4274C45.4883 3.17734 46.4015 3.38848 47.167 3.81075C47.9326 4.22959 48.5214 4.8321 48.9334 5.61828C49.3488 6.40446 49.5565 7.34514 49.5565 8.4403C49.5565 9.53889 49.3488 10.483 48.9334 11.2726C48.5214 12.0622 47.9292 12.6682 47.1567 13.0904C46.3877 13.5127 45.4677 13.7239 44.3965 13.7239ZM42.8877 11.8133H44.3038C44.963 11.8133 45.5174 11.6966 45.9672 11.4631C46.4203 11.2263 46.7602 10.8606 46.9868 10.3663C47.2168 9.86847 47.3318 9.22648 47.3318 8.4403C47.3318 7.66098 47.2168 7.02414 46.9868 6.52977C46.7602 6.0354 46.4221 5.67149 45.9723 5.43804C45.5226 5.20459 44.9681 5.08787 44.309 5.08787H42.8877V11.8133Z" fill="white"/>
<path d="M52.4313 13.7239H50.0418L53.6827 3.17734H56.5562L60.1918 13.7239H57.8024L55.1606 5.58738H55.0782L52.4313 13.7239ZM52.2819 9.57837H57.926V11.319H52.2819V9.57837Z" fill="white"/>
<path d="M61.4612 13.7239V3.17734H65.6221C66.4186 3.17734 67.0984 3.31982 67.6614 3.60476C68.2279 3.88628 68.6587 4.28624 68.954 4.80464C69.2527 5.3196 69.402 5.92554 69.402 6.62247C69.402 7.32282 69.2509 7.92533 68.9488 8.43C68.6467 8.93123 68.209 9.31574 67.6357 9.58352C67.0658 9.8513 66.3757 9.9852 65.5655 9.9852H62.7795V8.19311H65.205C65.6307 8.19311 65.9843 8.13475 66.2659 8.01802C66.5474 7.9013 66.7568 7.72621 66.8941 7.49276C67.0349 7.25931 67.1052 6.96921 67.1052 6.62247C67.1052 6.27229 67.0349 5.97704 66.8941 5.73672C66.7568 5.49641 66.5457 5.31445 66.2607 5.19086C65.9792 5.06383 65.6239 5.00032 65.1947 5.00032H63.691V13.7239H61.4612ZM67.1567 8.92436L69.7779 13.7239H67.3164L64.7518 8.92436H67.1567Z" fill="white"/>
<path d="M80.8484 3.17734H83.0782V10.0264C83.0782 10.7954 82.8945 11.4683 82.5272 12.0451C82.1633 12.6218 81.6535 13.0716 80.9977 13.3943C80.342 13.7136 79.5782 13.8732 78.7061 13.8732C77.8307 13.8732 77.0651 13.7136 76.4094 13.3943C75.7537 13.0716 75.2439 12.6218 74.8799 12.0451C74.516 11.4683 74.3341 10.7954 74.3341 10.0264V3.17734H76.5639V9.83585C76.5639 10.2375 76.6514 10.5946 76.8265 10.907C77.005 11.2194 77.2557 11.4649 77.5784 11.6434C77.9011 11.8219 78.277 11.9112 78.7061 11.9112C79.1387 11.9112 79.5146 11.8219 79.8339 11.6434C80.1566 11.4649 80.4055 11.2194 80.5806 10.907C80.7591 10.5946 80.8484 10.2375 80.8484 9.83585V3.17734Z" fill="white"/>
<path d="M93.7341 3.17734V13.7239H91.8082L87.2198 7.08594H87.1426V13.7239H84.9128V3.17734H86.8696L91.4219 9.81011H91.5146V3.17734H93.7341Z" fill="white"/>
<path d="M97.8062 3.17734V13.7239H95.5764V3.17734H97.8062Z" fill="white"/>
<path d="M101.546 3.17734L104.095 11.1902H104.193L106.747 3.17734H109.219L105.584 13.7239H102.71L99.0692 3.17734H101.546Z" fill="white"/>
<path d="M110.489 13.7239V3.17734H117.595V5.01577H112.718V7.52881H117.229V9.36724H112.718V11.8854H117.616V13.7239H110.489Z" fill="white"/>
<path d="M119.368 13.7239V3.17734H123.529C124.325 3.17734 125.005 3.31982 125.568 3.60476C126.135 3.88628 126.565 4.28624 126.861 4.80464C127.159 5.3196 127.309 5.92554 127.309 6.62247C127.309 7.32282 127.158 7.92533 126.855 8.43C126.553 8.93123 126.116 9.31574 125.542 9.58352C124.972 9.8513 124.282 9.9852 123.472 9.9852H120.686V8.19311H123.112C123.537 8.19311 123.891 8.13475 124.173 8.01802C124.454 7.9013 124.663 7.72621 124.801 7.49276C124.942 7.25931 125.012 6.96921 125.012 6.62247C125.012 6.27229 124.942 5.97704 124.801 5.73672C124.663 5.49641 124.452 5.31445 124.167 5.19086C123.886 5.06383 123.531 5.00032 123.101 5.00032H121.598V13.7239H119.368ZM125.063 8.92436L127.685 13.7239H125.223L122.659 8.92436H125.063Z" fill="white"/>
<path d="M134.606 6.21049C134.565 5.79509 134.388 5.47237 134.075 5.24236C133.763 5.01234 133.339 4.89733 132.803 4.89733C132.439 4.89733 132.132 4.94883 131.882 5.05182C131.631 5.15138 131.439 5.29042 131.305 5.46894C131.174 5.64746 131.109 5.85002 131.109 6.0766C131.102 6.26542 131.142 6.43021 131.228 6.57097C131.317 6.71173 131.439 6.8336 131.593 6.93659C131.748 7.03615 131.926 7.1237 132.129 7.19923C132.331 7.27132 132.548 7.33312 132.778 7.38462L133.725 7.6112C134.185 7.71419 134.607 7.85152 134.992 8.02317C135.376 8.19483 135.709 8.40597 135.991 8.65658C136.273 8.9072 136.491 9.20245 136.645 9.54232C136.803 9.8822 136.884 10.2719 136.887 10.7113C136.884 11.3567 136.719 11.9163 136.393 12.3901C136.07 12.8604 135.603 13.226 134.992 13.487C134.384 13.7444 133.651 13.8732 132.793 13.8732C131.942 13.8732 131.2 13.7427 130.568 13.4818C129.94 13.2209 129.449 12.8347 129.096 12.3231C128.745 11.8082 128.562 11.1713 128.545 10.4126H130.702C130.726 10.7662 130.828 11.0615 131.006 11.2984C131.188 11.5318 131.43 11.7086 131.732 11.8288C132.038 11.9455 132.383 12.0039 132.767 12.0039C133.145 12.0039 133.473 11.9489 133.751 11.8391C134.032 11.7292 134.25 11.5764 134.405 11.3808C134.559 11.1851 134.637 10.9602 134.637 10.7061C134.637 10.4693 134.566 10.2701 134.425 10.1088C134.288 9.94743 134.086 9.81011 133.818 9.69681C133.553 9.58352 133.229 9.48053 132.845 9.38783L131.696 9.09945C130.807 8.88317 130.105 8.54501 129.59 8.08497C129.075 7.62493 128.819 7.00526 128.823 6.22594C128.819 5.58738 128.989 5.0295 129.332 4.5523C129.679 4.0751 130.155 3.70261 130.759 3.43482C131.363 3.16704 132.05 3.03315 132.819 3.03315C133.602 3.03315 134.285 3.16704 134.868 3.43482C135.455 3.70261 135.912 4.0751 136.238 4.5523C136.564 5.0295 136.733 5.58223 136.743 6.21049H134.606Z" fill="white"/>
<path d="M140.617 3.17734V13.7239H138.387V3.17734H140.617Z" fill="white"/>
<path d="M142.05 5.01577V3.17734H150.711V5.01577H147.482V13.7239H145.278V5.01577H142.05Z" fill="white"/>
<path d="M151.52 3.17734H154.017L156.422 7.71934H156.525L158.93 3.17734H161.428L157.581 9.99549V13.7239H155.367V9.99549L151.52 3.17734Z" fill="white"/>
<path d="M0 21.3042H2.74992L5.65433 28.3901H5.77792L8.68233 21.3042H11.4322V31.8507H9.26939V24.9862H9.18185L6.45253 31.7992H4.97972L2.2504 24.9604H2.16286V31.8507H0V21.3042Z" fill="white"/>
<path d="M13.2694 31.8507V21.3042H20.3759V23.1426H15.4992V25.6556H20.0103V27.494H15.4992V30.0122H20.3965V31.8507H13.2694Z" fill="white"/>
<path d="M27.87 24.3373C27.8288 23.9219 27.652 23.5992 27.3396 23.3692C27.0271 23.1391 26.6032 23.0241 26.0676 23.0241C25.7037 23.0241 25.3964 23.0756 25.1458 23.1786C24.8952 23.2782 24.7029 23.4172 24.569 23.5958C24.4386 23.7743 24.3734 23.9768 24.3734 24.2034C24.3665 24.3922 24.406 24.557 24.4918 24.6978C24.5811 24.8385 24.7029 24.9604 24.8574 25.0634C25.0119 25.163 25.1904 25.2505 25.393 25.326C25.5955 25.3981 25.8118 25.4599 26.0418 25.5114L26.9894 25.738C27.4494 25.841 27.8717 25.9783 28.2562 26.15C28.6407 26.3216 28.9737 26.5328 29.2552 26.7834C29.5367 27.034 29.7547 27.3293 29.9092 27.6691C30.0672 28.009 30.1478 28.3987 30.1513 28.8381C30.1478 29.4835 29.983 30.0431 29.6569 30.5169C29.3342 30.9872 28.8673 31.3529 28.2562 31.6138C27.6485 31.8713 26.9156 32 26.0573 32C25.2059 32 24.4643 31.8695 23.8326 31.6086C23.2044 31.3477 22.7134 30.9615 22.3598 30.45C22.0097 29.935 21.826 29.2981 21.8088 28.5394H23.9665C23.9906 28.893 24.0918 29.1883 24.2704 29.4252C24.4523 29.6586 24.6943 29.8354 24.9965 29.9556C25.302 30.0723 25.647 30.1307 26.0315 30.1307C26.4092 30.1307 26.737 30.0757 27.0151 29.9659C27.2966 29.856 27.5146 29.7033 27.6691 29.5076C27.8236 29.3119 27.9009 29.087 27.9009 28.833C27.9009 28.5961 27.8305 28.397 27.6897 28.2356C27.5524 28.0742 27.3499 27.9369 27.0821 27.8236C26.8177 27.7103 26.4933 27.6073 26.1088 27.5146L24.9604 27.2263C24.0712 27.01 23.3692 26.6718 22.8542 26.2118C22.3392 25.7517 22.0835 25.1321 22.0869 24.3528C22.0835 23.7142 22.2534 23.1563 22.5967 22.6791C22.9435 22.2019 23.4189 21.8294 24.0232 21.5616C24.6274 21.2939 25.314 21.16 26.083 21.16C26.8658 21.16 27.549 21.2939 28.1326 21.5616C28.7197 21.8294 29.1763 22.2019 29.5024 22.6791C29.8286 23.1563 29.9968 23.709 30.0071 24.3373H27.87Z" fill="white"/>
<path d="M40.9565 24.9965H38.701C38.6598 24.7046 38.5757 24.4454 38.4487 24.2189C38.3216 23.9888 38.1586 23.7932 37.9594 23.6318C37.7603 23.4704 37.5303 23.3469 37.2694 23.261C37.0119 23.1752 36.7321 23.1323 36.43 23.1323C35.8841 23.1323 35.4086 23.2679 35.0035 23.5391C34.5984 23.8069 34.2843 24.1983 34.0612 24.7132C33.838 25.2248 33.7264 25.8462 33.7264 26.5774C33.7264 27.3293 33.838 27.9609 34.0612 28.4725C34.2877 28.984 34.6036 29.3702 35.0087 29.6312C35.4138 29.8921 35.8824 30.0225 36.4145 30.0225C36.7132 30.0225 36.9896 29.983 37.2436 29.9041C37.5011 29.8251 37.7294 29.7101 37.9285 29.5591C38.1277 29.4046 38.2925 29.2175 38.4229 28.9977C38.5568 28.778 38.6495 28.5274 38.701 28.2459L40.9565 28.2562C40.8982 28.7403 40.7523 29.2072 40.5188 29.6569C40.2888 30.1032 39.9781 30.5032 39.5867 30.8568C39.1988 31.207 38.7353 31.485 38.1963 31.691C37.6608 31.8936 37.0548 31.9949 36.3785 31.9949C35.4378 31.9949 34.5967 31.782 33.8552 31.3563C33.117 30.9306 32.5334 30.3143 32.1043 29.5076C31.6786 28.7008 31.4657 27.7241 31.4657 26.5774C31.4657 25.4273 31.682 24.4489 32.1146 23.6421C32.5472 22.8353 33.1342 22.2208 33.8758 21.7985C34.6173 21.3728 35.4516 21.16 36.3785 21.16C36.9896 21.16 37.5561 21.2458 38.0779 21.4174C38.6032 21.5891 39.0683 21.8397 39.4734 22.1693C39.8786 22.4954 40.2081 22.8954 40.4622 23.3692C40.7197 23.8429 40.8845 24.3854 40.9565 24.9965Z" fill="white"/>
<path d="M44.7853 21.3042V26.5774V31.8507H42.5555V21.3042H44.7853Z" fill="white"/>
<path d="M46.2182 23.1426V21.3042H54.8799V23.1426H51.6511V31.8507H49.4471V23.1426H46.2182Z" fill="white"/>
<path d="M59.5078 21.8916H74.0093V31.5592H59.5078V21.8916Z" fill="#07BDB8"/>
<path d="M81.26 21.8916H95.7614V31.5592H81.26V21.8916Z" fill="#07BDB8"/>
<path d="M103.012 21.8916H117.514V31.5592H103.012V21.8916Z" fill="#07BDB8"/>
<path d="M124.764 21.8916H139.266V31.5592H124.764V21.8916Z" fill="#07BDB8"/>
<path d="M146.516 21.8916H161.018V31.5592H146.516V21.8916Z" fill="#07BDB8"/>
</svg>
