<svg width="37" height="109" viewBox="0 0 37 109" fill="none" xmlns="http://www.w3.org/2000/svg">
<path d="M9.43555 107.718C9.78276 106.949 9.92063 106.114 10.0099 105.28C10.12 104.422 10.2057 103.561 10.2776 102.698C10.5033 99.922 10.5441 97.1341 10.4903 94.3504C10.3208 87.946 9.67817 82.3085 8.40021 76.1397C7.44324 71.8372 6.08525 67.635 4.90087 63.3912C3.85526 59.7302 2.84437 56.0554 2.10517 52.3193C1.69318 49.8816 1.34542 48.1256 1.35863 45.4939C1.40742 43.55 1.51017 42.3953 2.27619 40.4939C2.3922 40.2197 2.77654 39.2842 3.19676 38.5806C3.74871 37.6827 3.97921 37.3218 4.49077 36.7563C6.29092 34.8866 7.98619 33.8555 10.4113 32.5466C12.7393 31.307 15.1194 30.1544 17.3526 28.7454C18.8265 27.8191 20.1718 26.6981 21.3049 25.3737C22.2379 24.3417 23.0056 23.1288 23.0507 21.6963C23.1288 20.2464 22.5323 18.8365 21.7034 17.6711C20.2891 15.6706 18.2227 14.2945 16.2812 12.856C14.9438 11.8914 12.5592 10.1693 11.7883 9.58401C10.509 8.60998 9.002 7.41512 8.4529 6.4307C8.02218 5.67739 7.97396 5.30833 8.05325 4.83436C8.06274 4.7901 8.07485 4.7467 8.08868 4.7033C8.98412 2.83248 11.6835 2.14125 13.8904 1.94952C16.1823 1.77179 18.486 1.95092 20.7732 2.13438C23.9279 2.38924 26.9517 2.86187 30.3813 3.56683C31.3722 3.76864 32.3623 3.97826 33.3325 4.26859C33.7503 4.38633 34.1542 4.55093 34.5676 4.67995C35.4067 4.91022 35.7696 4.90893 36.5945 4.97595C36.2352 4.38944 35.7058 3.92426 35.1072 3.59271C34.6719 3.37076 34.2029 3.22605 33.7382 3.07873C32.8001 2.79451 31.8422 2.5858 30.8825 2.39098C27.7299 1.7046 24.5376 1.21613 21.3291 0.89C17.0404 0.562522 10.0047 -0.342302 7.15221 3.60727C6.09653 5.08892 6.95234 6.9437 8.04957 8.13978C9.30589 9.5019 10.8614 10.5423 12.3266 11.6641C13.8075 12.7478 15.3065 13.8081 16.7822 14.9005C18.1935 15.9233 19.8875 17.3311 20.7044 18.6145C22.1423 20.7704 21.9405 22.5718 20.555 24.1538C19.7842 25.0445 18.9674 25.903 18.0263 26.6147C16.0563 28.0822 13.8515 29.1934 11.684 30.335C8.58723 31.9418 5.33682 33.5787 3.07845 36.3169C2.27311 37.3292 1.63985 38.4701 1.14904 39.6651C0.782857 40.532 0.443612 41.4189 0.27807 42.3495C-0.510835 46.7844 0.486319 51.278 1.41295 55.6178C2.82597 61.4793 4.63478 67.2338 6.23875 73.0435C7.28701 76.7539 8.03236 80.5396 8.62059 84.3467C9.25672 88.2833 9.77583 93.0688 9.79613 97.4995C9.80899 99.4566 9.74545 101.414 9.58206 103.364C9.49948 104.68 9.27935 105.7 9.23316 106.956C9.22842 107.326 9.24538 107.696 9.27796 108.065C9.33252 107.95 9.3862 107.836 9.43468 107.718L9.43555 107.718Z" fill="#07BCB6"/>
<path d="M9.85818 107.84C10.8418 107.004 11.9817 105.92 12.6323 105.361C13.1962 104.866 13.7554 104.364 14.3136 103.862C14.5153 103.656 14.7796 103.503 14.9311 103.255C15.2483 102.573 14.3793 102.153 14.0133 102.638C14.0082 102.643 14.004 102.648 13.9988 102.653C13.6861 102.936 13.37 103.216 13.0583 103.499C12.0441 104.404 10.7425 105.559 9.45872 106.726C9.44418 106.712 9.42963 106.699 9.41508 106.685C9.12365 106.41 8.85838 106.106 8.59389 105.804C7.8306 104.948 6.59129 103.272 5.58344 102.013C5.16576 101.496 5.02835 101.343 4.80207 101.092C4.71634 101.014 4.63957 100.923 4.55243 100.846C4.49262 100.781 4.41497 100.732 4.32797 100.714C4.10635 100.662 3.8661 100.822 3.82084 101.049C3.8029 101.165 3.81433 101.282 3.88162 101.38C3.87988 101.379 3.87798 101.373 3.87454 101.365C3.89795 101.409 3.92471 101.452 3.9491 101.497C4.07833 101.734 4.22889 101.956 4.38182 102.177C5.01574 103.071 5.68344 103.941 6.35115 104.81C6.90639 105.538 7.4899 106.243 8.09717 106.928C8.54961 107.385 9.13174 108.249 9.85741 107.839L9.85818 107.84Z" fill="#07BCB6"/>
</svg>
