<svg width="32" height="32" viewBox="0 0 32 32" fill="none" xmlns="http://www.w3.org/2000/svg">
<g clip-path="url(#clip0_54_6561)">
<path fill-rule="evenodd" clip-rule="evenodd" d="M8.97867 0C2.40454 0 0 2.40413 0 8.97692V23.0231C0 29.5959 2.40454 32 8.97867 32H23.0171C29.591 32 32 29.5959 32 23.0231V8.97692C32 2.40413 29.5955 0 23.0213 0H8.97867Z" fill="white"/>
<path fill-rule="evenodd" clip-rule="evenodd" d="M13.9574 18.5593H15.2421L14.5976 17.0604L13.9574 18.5593ZM13.6411 19.3147L13.2599 20.1869H12.3921L14.2375 16.0003H14.9875L16.8254 20.1869H15.9344L15.5582 19.3147H13.6411ZM27.6049 20.1838H28.4436V16H27.6049V20.1838ZM24.2668 18.3865H25.8127V17.6237H24.2668V16.7662H26.511V16.0031H23.4283V20.1866H26.5918V19.4235H24.2668V18.3865ZM20.9343 18.8808L19.9834 16H19.2895L18.3387 18.8808L17.4133 16.0023H16.5085L17.9688 20.1892H18.6723L19.6247 17.439L20.5771 20.1892H21.2866L22.7431 16.0023H21.8617L20.9343 18.8808ZM11.1118 18.3981C11.1118 19.0791 10.7736 19.4431 10.1594 19.4431C9.5419 19.4431 9.20189 19.0686 9.20189 18.369V16.0028H8.35186V18.3981C8.35186 19.5763 9.00668 20.2519 10.1478 20.2519C11.3003 20.2519 11.9611 19.5634 11.9611 18.3631V16.0003H11.1118V18.3981ZM6.32389 16.0003H7.1734V20.1894H6.32389V18.4881H4.40471V20.1894H3.55469V16.0003H4.40471V17.69H6.32389V16.0003Z" fill="#419846"/>
<path fill-rule="evenodd" clip-rule="evenodd" d="M16.0013 10.6663C13.0602 10.6663 10.668 8.27385 10.668 5.33301H11.4213C11.4213 7.85821 13.4761 9.91274 16.0013 9.91274C18.5265 9.91274 20.5813 7.85821 20.5813 5.33301H21.3346C21.3346 8.27385 18.9421 10.6663 16.0013 10.6663Z" fill="#419846"/>
</g>
<defs>
<clipPath id="clip0_54_6561">
<rect width="32" height="32" fill="white"/>
</clipPath>
</defs>
</svg>
